<svg width="117" height="106" viewBox="0 0 117 106" fill="none" xmlns="http://www.w3.org/2000/svg">
<g clip-path="url(#clip0_331_2370)">
<path d="M59.2882 26.627H16.8095C14.0454 26.627 11.8047 28.8639 11.8047 31.6234V73.4907C11.8047 76.2501 14.0454 78.4871 16.8095 78.4871H59.2882C62.0523 78.4871 64.293 76.2501 64.293 73.4907V31.6234C64.293 28.8639 62.0523 26.627 59.2882 26.627Z" fill="#F2F2F2"/>
<path d="M25.7299 27.6544C22.3097 27.6544 19.0296 29.0108 16.6111 31.4252C14.1927 33.8396 12.834 37.1142 12.834 40.5287V73.4907C12.834 74.0119 12.9368 74.528 13.1366 75.0095C13.3364 75.491 13.6292 75.9286 13.9984 76.2971C14.3676 76.6657 14.8058 76.958 15.2882 77.1575C15.7705 77.3569 16.2875 77.4596 16.8095 77.4596H43.9205C49.0506 77.4596 53.9706 75.4251 57.5982 71.8036C61.2258 68.1821 63.2637 63.2703 63.2637 58.1488V31.6233C63.2637 30.5707 62.8449 29.5612 62.0993 28.8169C61.3537 28.0726 60.3425 27.6544 59.2882 27.6544H25.7299Z" fill="white"/>
<path d="M110.478 9.51049H4.42249C4.37286 9.51049 4.32525 9.4908 4.29016 9.45577C4.25506 9.42073 4.23535 9.37321 4.23535 9.32366C4.23535 9.27411 4.25506 9.2266 4.29016 9.19156C4.32525 9.15652 4.37286 9.13684 4.42249 9.13684H110.478C110.528 9.13684 110.576 9.15652 110.611 9.19156C110.646 9.2266 110.666 9.27411 110.666 9.32366C110.666 9.37321 110.646 9.42073 110.611 9.45577C110.576 9.4908 110.528 9.51049 110.478 9.51049Z" fill="#E6E6E6"/>
<path d="M9.72902 3.90194C10.603 3.90194 11.3116 3.17884 11.3116 2.28685C11.3116 1.39485 10.603 0.671753 9.72902 0.671753C8.85501 0.671753 8.14648 1.39485 8.14648 2.28685C8.14648 3.17884 8.85501 3.90194 9.72902 3.90194Z" fill="#E6E6E6"/>
<path d="M15.1958 3.90194C16.0698 3.90194 16.7784 3.17884 16.7784 2.28685C16.7784 1.39485 16.0698 0.671753 15.1958 0.671753C14.3218 0.671753 13.6133 1.39485 13.6133 2.28685C13.6133 3.17884 14.3218 3.90194 15.1958 3.90194Z" fill="#E6E6E6"/>
<path d="M20.6626 3.90194C21.5366 3.90194 22.2452 3.17884 22.2452 2.28685C22.2452 1.39485 21.5366 0.671753 20.6626 0.671753C19.7886 0.671753 19.0801 1.39485 19.0801 2.28685C19.0801 3.17884 19.7886 3.90194 20.6626 3.90194Z" fill="#E6E6E6"/>
<path d="M26.8966 3.56336C26.8716 3.5634 26.847 3.55844 26.824 3.54879C26.801 3.53913 26.7802 3.52498 26.7628 3.50717L25.695 2.41743C25.6608 2.38253 25.6416 2.33564 25.6416 2.28681C25.6416 2.23797 25.6608 2.19107 25.695 2.15618L26.7628 1.06653C26.7799 1.04871 26.8004 1.03446 26.8231 1.0246C26.8457 1.01473 26.8701 1.00945 26.8949 1.00906C26.9196 1.00866 26.9442 1.01317 26.9671 1.02231C26.9901 1.03145 27.011 1.04504 27.0287 1.0623C27.0464 1.07956 27.0605 1.10015 27.0701 1.12288C27.0798 1.1456 27.0848 1.17002 27.085 1.1947C27.0851 1.21939 27.0804 1.24386 27.071 1.2667C27.0616 1.28955 27.0478 1.31031 27.0303 1.32779L26.0905 2.2868L27.0303 3.24591C27.0561 3.2722 27.0735 3.30549 27.0804 3.34162C27.0873 3.37774 27.0833 3.41509 27.0691 3.44899C27.0548 3.48288 27.0308 3.51182 27.0001 3.53216C26.9694 3.55251 26.9334 3.56336 26.8966 3.56336Z" fill="#E6E6E6"/>
<path d="M28.6904 3.56336C28.6535 3.56336 28.6175 3.5525 28.5868 3.53216C28.5562 3.51181 28.5322 3.48288 28.5179 3.44898C28.5036 3.41509 28.4997 3.37774 28.5065 3.34161C28.5134 3.30549 28.5308 3.2722 28.5566 3.24591L29.4963 2.2868L28.5566 1.32779C28.5391 1.31031 28.5253 1.28954 28.5159 1.2667C28.5066 1.24386 28.5018 1.21939 28.502 1.1947C28.5021 1.17001 28.5072 1.1456 28.5168 1.12288C28.5265 1.10015 28.5406 1.07956 28.5582 1.0623C28.5759 1.04504 28.5968 1.03144 28.6198 1.0223C28.6428 1.01317 28.6673 1.00866 28.6921 1.00906C28.7168 1.00945 28.7412 1.01473 28.7639 1.0246C28.7865 1.03446 28.807 1.04871 28.8241 1.06653L29.8919 2.15617C29.9261 2.19107 29.9452 2.23797 29.9452 2.2868C29.9452 2.33564 29.9261 2.38253 29.8919 2.41743L28.8241 3.50717C28.8067 3.52498 28.7859 3.53913 28.7629 3.54879C28.74 3.55844 28.7153 3.5634 28.6904 3.56336Z" fill="#E6E6E6"/>
<path d="M101.021 0.858765H99.0358C98.982 0.858749 98.9287 0.869322 98.879 0.889877C98.8292 0.910433 98.784 0.940569 98.746 0.978565C98.7079 1.01656 98.6777 1.06167 98.6571 1.11132C98.6366 1.16096 98.626 1.21417 98.626 1.26791V3.25196C98.626 3.30569 98.6366 3.35891 98.6571 3.40855C98.6777 3.4582 98.7079 3.50331 98.746 3.54131C98.784 3.5793 98.8292 3.60944 98.879 3.62999C98.9287 3.65055 98.982 3.66112 99.0358 3.6611H101.021C101.13 3.66121 101.235 3.61819 101.312 3.5415C101.389 3.4648 101.433 3.36068 101.433 3.25196V1.26791C101.433 1.15919 101.389 1.05507 101.312 0.978371C101.235 0.901673 101.13 0.85866 101.021 0.858765Z" fill="#E6E6E6"/>
<path d="M96.1551 0.858765H94.1696C94.1158 0.858749 94.0625 0.869322 94.0127 0.889877C93.963 0.910433 93.9178 0.940569 93.8798 0.978565C93.8417 1.01656 93.8115 1.06167 93.7909 1.11132C93.7703 1.16096 93.7597 1.21417 93.7598 1.26791V3.25196C93.7597 3.30569 93.7703 3.35891 93.7909 3.40855C93.8115 3.4582 93.8417 3.50331 93.8798 3.54131C93.9178 3.5793 93.963 3.60944 94.0127 3.62999C94.0625 3.65055 94.1158 3.66112 94.1696 3.6611H96.1551C96.264 3.66121 96.3685 3.61819 96.4457 3.5415C96.5229 3.4648 96.5664 3.36068 96.5668 3.25196V1.26791C96.5664 1.15919 96.5229 1.05507 96.4457 0.978371C96.3685 0.901673 96.264 0.85866 96.1551 0.858765Z" fill="#E6E6E6"/>
<path d="M105.605 0.952149H103.62C103.566 0.952132 103.513 0.962705 103.463 0.983261C103.413 1.00382 103.368 1.03395 103.33 1.07195C103.292 1.10994 103.262 1.15505 103.241 1.2047C103.221 1.25435 103.21 1.30756 103.21 1.36129V3.34534C103.21 3.39908 103.221 3.45229 103.241 3.50194C103.262 3.55158 103.292 3.59669 103.33 3.63469C103.368 3.67268 103.413 3.70282 103.463 3.72338C103.513 3.74393 103.566 3.7545 103.62 3.75449H105.605C105.714 3.75459 105.819 3.71158 105.896 3.63488C105.973 3.55818 106.017 3.45406 106.017 3.34534V1.36129C106.017 1.25258 105.973 1.14845 105.896 1.07175C105.819 0.995057 105.714 0.952044 105.605 0.952149Z" fill="#E6E6E6"/>
<path d="M65.7881 3.8628H52.8756C52.4289 3.8628 52.0006 3.68566 51.6847 3.37033C51.3689 3.05501 51.1914 2.62734 51.1914 2.1814C51.1914 1.73547 51.3689 1.3078 51.6847 0.992473C52.0006 0.677149 52.4289 0.5 52.8756 0.5H65.7881C66.2347 0.5 66.6631 0.677149 66.979 0.992473C67.2948 1.3078 67.4723 1.73547 67.4723 2.1814C67.4723 2.62734 67.2948 3.05501 66.979 3.37033C66.6631 3.68566 66.2347 3.8628 65.7881 3.8628Z" fill="#E6E6E6"/>
<path d="M44.527 59.7973H15.7093C15.5445 59.7973 15.3865 59.732 15.2699 59.6156C15.1534 59.4993 15.0879 59.3415 15.0879 59.1769C15.0879 59.0124 15.1534 58.8546 15.2699 58.7382C15.3865 58.6219 15.5445 58.5565 15.7093 58.5565H44.527C44.6918 58.5565 44.8499 58.6219 44.9664 58.7382C45.083 58.8546 45.1485 59.0124 45.1485 59.1769C45.1485 59.3415 45.083 59.4993 44.9664 59.6156C44.8499 59.732 44.6918 59.7973 44.527 59.7973Z" fill="#F2F2F2"/>
<path d="M44.5272 42.1011H1.12156C1.03986 42.1012 0.958928 42.0853 0.883405 42.0541C0.807882 42.023 0.739247 41.9773 0.681426 41.9197C0.623604 41.8621 0.577734 41.7937 0.546436 41.7183C0.515137 41.643 0.499023 41.5622 0.499023 41.4806C0.499023 41.3991 0.515137 41.3183 0.546436 41.243C0.577734 41.1676 0.623604 41.0992 0.681426 41.0416C0.739247 40.9839 0.807882 40.9383 0.883405 40.9071C0.958928 40.876 1.03986 40.8601 1.12156 40.8602H44.5272C44.6919 40.8605 44.8497 40.926 44.966 41.0423C45.0823 41.1586 45.1476 41.3163 45.1476 41.4806C45.1476 41.645 45.0823 41.8026 44.966 41.919C44.8497 42.0353 44.6919 42.1008 44.5272 42.1011Z" fill="#F2F2F2"/>
<path d="M44.5284 46.5314H1.12085C0.956094 46.5317 0.798182 46.5972 0.68178 46.7136C0.565377 46.83 0.5 46.9878 0.5 47.1523C0.5 47.3167 0.565377 47.4745 0.68178 47.5909C0.798182 47.7073 0.956094 47.7729 1.12085 47.7732H44.5284C44.6931 47.7729 44.851 47.7073 44.9674 47.5909C45.0838 47.4745 45.1492 47.3167 45.1492 47.1523C45.1492 46.9878 45.0838 46.83 44.9674 46.7136C44.851 46.5972 44.6931 46.5317 44.5284 46.5314Z" fill="#F2F2F2"/>
<path d="M44.5271 53.445H1.12145C0.956635 53.445 0.798565 53.3797 0.68202 53.2633C0.565474 53.147 0.5 52.9892 0.5 52.8246C0.5 52.6601 0.565474 52.5023 0.68202 52.3859C0.798565 52.2696 0.956635 52.2042 1.12145 52.2042H44.5271C44.692 52.2042 44.85 52.2696 44.9666 52.3859C45.0831 52.5023 45.1486 52.6601 45.1486 52.8246C45.1486 52.9892 45.0831 53.147 44.9666 53.2633C44.85 53.3797 44.692 53.445 44.5271 53.445Z" fill="#F2F2F2"/>
<path d="M81.0774 103.012L79.0846 103.012L78.1367 95.3386L81.0778 95.3388L81.0774 103.012Z" fill="#A0616A"/>
<path d="M81.1475 105.087L75.0195 105.087V105.01C75.0196 104.378 75.2709 103.773 75.7182 103.326C76.1655 102.88 76.7721 102.629 77.4047 102.629L78.5242 101.781L80.6126 102.629L81.1475 102.629L81.1475 105.087Z" fill="#2F2E41"/>
<path d="M101.128 103.012L99.1355 103.012L98.1875 95.3386L101.129 95.3388L101.128 103.012Z" fill="#A0616A"/>
<path d="M101.198 105.087L95.0703 105.087V105.01C95.0704 104.378 95.3217 103.773 95.769 103.326C96.2163 102.88 96.8229 102.629 97.4555 102.629L98.575 101.781L100.663 102.629L101.198 102.629L101.198 105.087Z" fill="#2F2E41"/>
<path d="M82.7038 58.9284C82.7038 58.9284 81.3951 60.3151 81.3398 61.2147C81.2846 62.1142 81.9665 60.4802 81.2845 62.1142C80.6026 63.7483 80.6026 62.6589 80.6026 63.7483C80.6026 64.8376 79.1574 65.9014 79.1574 65.9014L76.7744 75.6894L78.1474 98.6076H81.1482C83.9368 90.1212 85.2342 83.5678 83.7397 80.6332L87.907 71.3864C87.907 71.3864 95.7814 95.9853 96.103 96.2752C96.4247 96.565 96.4247 96.1565 96.4247 96.565C96.4247 96.9735 96.0155 96.565 96.4247 96.9735L98.3343 98.8799L101.199 98.6076C101.199 98.6076 101.582 80.7978 98.3896 77.7198C98.3896 77.7198 99.1268 68.1883 98.3896 68.2151C97.6523 68.2419 97.6523 69.4674 97.6523 68.2418C97.6523 67.0163 98.526 66.6893 98.526 66.6893L96.0708 58.0811L82.7038 58.9284Z" fill="#2F2E41"/>
<path d="M98.1649 39.9542L95.3915 51.5465L96.0465 55.8584L96.8325 61.024L94.1153 60.8484L89.9103 60.5756L82.103 60.0712L81.4199 37.1948L85.0017 33.4584L85.6417 31.6443L90.8198 31.6125L92.0586 33.7909L95.2437 34.6951C95.6531 34.9545 96.0377 35.2509 96.3927 35.5807C97.1787 36.3074 97.8748 37.2303 98.2005 38.1756C98.2986 38.4511 98.3609 38.7381 98.3857 39.0294L98.1649 39.9542Z" fill="#E6E6E6"/>
<path d="M74.0625 69.367C74.2712 69.2519 74.4523 69.0928 74.5934 68.901C74.7344 68.7091 74.832 68.4889 74.8794 68.2557C74.9269 68.0224 74.923 67.7817 74.868 67.5501C74.8131 67.3185 74.7084 67.1016 74.5612 66.9143L78.5111 59.7355L76.7907 58.1566L72.1619 66.7173C71.8646 66.988 71.6771 67.3582 71.635 67.7577C71.5929 68.1572 71.699 68.5583 71.9333 68.8849C72.1676 69.2115 72.5137 69.441 72.9062 69.5299C73.2986 69.6187 73.7101 69.5607 74.0625 69.367Z" fill="#E6E6E6"/>
<path d="M83.6956 35.7961L82.7749 52.2617L78.3393 62.6092L75.4522 66.4313L75.7804 64.6994L73.7904 63.7054L73.6035 63.6128L77.424 48.8112L77.7759 43.0594C77.8366 42.0696 78.1024 41.1031 78.5565 40.2211C79.0105 39.3391 79.643 38.5608 80.4139 37.9354L82.6235 36.1434L83.6956 35.7961Z" fill="#E6E6E6"/>
<path d="M74.0625 69.367C74.2712 69.2519 74.4523 69.0928 74.5934 68.901C74.7344 68.7091 74.832 68.4889 74.8794 68.2557C74.9269 68.0224 74.923 67.7817 74.868 67.5501C74.8131 67.3185 74.7084 67.1016 74.5612 66.9143L78.5111 59.7355L76.7907 58.1566L72.1619 66.7173C71.8646 66.988 71.6771 67.3582 71.635 67.7577C71.5929 68.1572 71.699 68.5583 71.9333 68.8849C72.1676 69.2115 72.5137 69.441 72.9062 69.5299C73.2986 69.6187 73.7101 69.5607 74.0625 69.367Z" fill="#A0616A"/>
<path d="M83.6956 35.7961L82.7749 52.2617L78.3393 62.6092L75.4522 66.4313L75.7804 64.6994L73.7904 63.7054L73.6035 63.6128L77.424 48.8112L77.7759 43.0594C77.8366 42.0696 78.1024 41.1031 78.5565 40.2211C79.0105 39.3391 79.643 38.5608 80.4139 37.9354L82.6235 36.1434L83.6956 35.7961Z" fill="#E6E6E6"/>
<path d="M87.9708 36.3638H45.4921C42.728 36.3638 40.4873 38.6007 40.4873 41.3602V63.2375C40.4873 65.9969 42.728 68.2339 45.4921 68.2339H87.9708C90.7349 68.2339 92.9756 65.9969 92.9756 63.2375V41.3602C92.9756 38.6007 90.7349 36.3638 87.9708 36.3638Z" fill="white"/>
<path d="M87.9714 68.4208H45.4927C44.1162 68.4193 42.7965 67.8727 41.8232 66.901C40.8499 65.9293 40.3023 64.6118 40.3008 63.2376V41.3602C40.3023 39.986 40.8499 38.6686 41.8232 37.6969C42.7965 36.7251 44.1162 36.1786 45.4927 36.177H87.9714C89.3479 36.1786 90.6676 36.7252 91.6409 37.6969C92.6142 38.6686 93.1617 39.986 93.1633 41.3602V63.2376C93.1617 64.6118 92.6142 65.9293 91.6409 66.901C90.6676 67.8727 89.3479 68.4193 87.9714 68.4208ZM45.4927 36.5506C44.215 36.5506 42.9896 37.0574 42.0861 37.9593C41.1826 38.8613 40.6751 40.0847 40.6751 41.3602V49.5374C40.6751 54.4465 42.6285 59.1545 46.1056 62.6258C49.5827 66.0971 54.2986 68.0472 59.216 68.0472H87.9714C89.2491 68.0472 90.4745 67.5405 91.378 66.6385C92.2814 65.7366 92.789 64.5133 92.789 63.2377V41.3602C92.789 40.7286 92.6644 40.1032 92.4223 39.5197C92.1802 38.9362 91.8253 38.406 91.3779 37.9593C90.9306 37.5127 90.3995 37.1585 89.815 36.9168C89.2305 36.6751 88.604 36.5507 87.9713 36.5507L45.4927 36.5506Z" fill="#3F3D56"/>
<path d="M56.7197 59.585H46.8015C46.4397 59.585 46.1465 59.8777 46.1465 60.2388C46.1465 60.6 46.4397 60.8927 46.8015 60.8927H56.7197C57.0814 60.8927 57.3747 60.6 57.3747 60.2388C57.3747 59.8777 57.0814 59.585 56.7197 59.585Z" fill="#4416A8"/>
<path d="M86.662 57.8102H79.738C79.3763 57.8102 79.083 58.1029 79.083 58.4641V62.0137C79.083 62.3748 79.3763 62.6676 79.738 62.6676H86.662C87.0238 62.6676 87.317 62.3748 87.317 62.0137V58.4641C87.317 58.1029 87.0238 57.8102 86.662 57.8102Z" fill="#4416A8"/>
<path d="M49.5149 48.6558C51.3753 48.6558 52.8834 47.1502 52.8834 45.293C52.8834 43.4358 51.3753 41.9302 49.5149 41.9302C47.6546 41.9302 46.1465 43.4358 46.1465 45.293C46.1465 47.1502 47.6546 48.6558 49.5149 48.6558Z" fill="#4416A8"/>
<path d="M88.0421 30.6497C90.378 30.6497 92.2717 28.7592 92.2717 26.4272C92.2717 24.0952 90.378 22.2047 88.0421 22.2047C85.7062 22.2047 83.8125 24.0952 83.8125 26.4272C83.8125 28.7592 85.7062 30.6497 88.0421 30.6497Z" fill="#A0616A"/>
<path d="M91.5116 28.6097C91.5446 28.862 91.0875 28.8887 90.9844 28.656C90.8814 28.4233 91.0151 28.1596 91.145 27.9408L91.4468 27.4329C91.5036 27.3373 91.5367 27.2294 91.5433 27.1184C91.5499 27.0074 91.5299 26.8964 91.4848 26.7947C91.4398 26.693 91.371 26.6035 91.2843 26.5337C91.1976 26.4639 91.0954 26.4158 90.9863 26.3934C91.2624 25.7735 90.9628 24.9998 90.4127 24.6015C89.8626 24.2032 89.0442 24.9485 88.3768 25.0763C87.7095 25.2041 87.1752 24.6942 86.5669 24.9965L86.9323 24.1553L84.9094 25.0255L85.3793 24.0793C84.8688 24.1071 84.6514 24.7278 84.5497 25.2281C84.4413 25.7611 84.1568 26.4274 83.5764 26.317C83.4388 26.2863 83.3126 26.2175 83.2124 26.1184C83.1122 26.0193 83.0421 25.894 83.0101 25.7569C82.5616 24.0304 83.8637 22.143 85.5898 21.8402C85.7744 21.3314 86.1174 20.895 86.5685 20.5949C87.0196 20.2948 87.555 20.1468 88.0965 20.1725C88.6379 20.1983 89.1569 20.3964 89.5774 20.738C89.9978 21.0795 90.2977 21.5465 90.4331 22.0705L90.999 21.3787L91.1093 22.3588C91.516 22.3157 91.9003 22.6023 92.0979 22.9598C92.2955 23.3173 92.2021 23.7788 92.3919 24.1405C93.2424 25.7615 92.961 27.5865 91.6478 28.8298" fill="#2F2E41"/>
<path d="M106.346 102.262C106.433 102.266 106.519 102.243 106.593 102.197C106.667 102.15 106.724 102.082 106.758 102.002C106.791 101.922 106.799 101.833 106.781 101.748C106.762 101.663 106.718 101.586 106.654 101.527L106.625 101.412C106.629 101.402 106.633 101.393 106.637 101.384C106.724 101.177 106.871 101.001 107.059 100.877C107.246 100.754 107.466 100.688 107.691 100.689C107.916 100.69 108.135 100.757 108.322 100.882C108.509 101.007 108.654 101.184 108.74 101.392C109.084 102.219 109.522 103.048 109.63 103.922C109.678 104.309 109.658 104.701 109.571 105.081C110.379 103.321 110.799 101.408 110.801 99.4721C110.802 98.9863 110.775 98.5009 110.72 98.0181C110.676 97.6223 110.614 97.2294 110.534 96.8392C110.101 94.7223 109.171 92.7381 107.821 91.0496C107.167 90.6936 106.639 90.1461 106.306 89.481C106.186 89.2419 106.101 88.9866 106.054 88.7232C106.127 88.7329 106.332 87.6118 106.276 87.5431C106.379 87.3874 106.563 87.3101 106.675 87.1582C107.233 86.4028 108.002 86.5347 108.403 87.5612C109.261 87.9932 109.269 88.7098 108.743 89.3989C108.408 89.8374 108.362 90.4306 108.069 90.9C108.099 90.9386 108.13 90.976 108.16 91.0146C108.713 91.7237 109.194 92.4852 109.598 93.288C109.5 92.3886 109.617 91.4788 109.94 90.6333C110.267 89.8455 110.88 89.1819 111.42 88.5008C111.563 88.3178 111.757 88.1812 111.977 88.1082C112.198 88.0353 112.435 88.0293 112.659 88.0909C112.883 88.1526 113.084 88.2791 113.236 88.4546C113.388 88.6301 113.484 88.8466 113.513 89.0768C113.514 89.0868 113.515 89.0969 113.516 89.1069C113.436 89.1521 113.357 89.2 113.281 89.2508C113.184 89.3151 113.109 89.4071 113.066 89.5146C113.023 89.6221 113.013 89.7402 113.038 89.8533C113.063 89.9664 113.122 90.0694 113.207 90.1486C113.291 90.2278 113.398 90.2796 113.513 90.2973L113.525 90.2991C113.496 90.5877 113.446 90.8737 113.374 91.1546C114.066 93.8291 112.571 94.8032 110.435 94.847C110.388 94.8711 110.342 94.8953 110.295 94.9182C110.7 96.0654 110.955 97.2603 111.052 98.473C111.106 99.1885 111.103 99.9072 111.042 100.622L111.046 100.597C111.2 99.8018 111.625 99.0844 112.248 98.5659C113.174 97.8069 114.481 97.5274 115.48 96.9174C115.586 96.8494 115.709 96.813 115.835 96.8127C115.961 96.8124 116.085 96.8481 116.191 96.9156C116.298 96.9831 116.383 97.0796 116.436 97.1937C116.489 97.3078 116.509 97.4347 116.492 97.5595L116.488 97.5861C116.339 97.6466 116.195 97.7164 116.054 97.7949C115.974 97.8401 115.896 97.888 115.819 97.9387C115.722 98.0031 115.648 98.095 115.604 98.2026C115.561 98.3101 115.551 98.4282 115.576 98.5413C115.602 98.6544 115.66 98.7573 115.745 98.8365C115.83 98.9158 115.936 98.9676 116.051 98.9853L116.063 98.9871C116.071 98.9883 116.079 98.9895 116.087 98.9907C115.833 99.5969 115.476 100.155 115.032 100.64C114.599 102.975 112.738 103.196 110.748 102.517H110.747C110.529 103.464 110.212 104.386 109.803 105.268H106.431C106.419 105.23 106.408 105.192 106.397 105.154C106.709 105.174 107.022 105.155 107.33 105.099C107.08 104.792 106.83 104.483 106.579 104.177C106.574 104.171 106.569 104.165 106.564 104.159C106.437 104.002 106.309 103.846 106.182 103.689L106.182 103.689C106.175 103.208 106.23 102.729 106.346 102.262Z" fill="#F2F2F2"/>
<path d="M54.2188 105.278C54.2187 105.307 54.2244 105.336 54.2355 105.363C54.2467 105.39 54.2631 105.414 54.2838 105.435C54.3045 105.456 54.3291 105.472 54.3561 105.483C54.3832 105.494 54.4122 105.5 54.4415 105.5H116.251C116.31 105.5 116.366 105.477 116.408 105.435C116.45 105.393 116.473 105.337 116.473 105.278C116.473 105.219 116.45 105.162 116.408 105.121C116.366 105.079 116.31 105.055 116.251 105.055H54.4414C54.4122 105.055 54.3832 105.061 54.3561 105.072C54.3291 105.083 54.3045 105.1 54.2838 105.12C54.2631 105.141 54.2467 105.166 54.2355 105.193C54.2244 105.22 54.2187 105.249 54.2188 105.278Z" fill="#CCCCCC"/>
<path d="M89.8437 68.3677C90.0481 68.2452 90.2234 68.0799 90.3576 67.8831C90.4917 67.6864 90.5814 67.4629 90.6205 67.2281C90.6596 66.9933 90.6471 66.7529 90.584 66.5234C90.5208 66.2939 90.4085 66.0808 90.2548 65.8989L93.9467 58.5845L92.1712 57.0676L87.8499 65.787C87.5624 66.0682 87.3883 66.4448 87.3604 66.8455C87.3325 67.2463 87.4529 67.6433 87.6986 67.9614C87.9444 68.2795 88.2985 68.4966 88.6938 68.5715C89.0892 68.6463 89.4983 68.5738 89.8437 68.3677Z" fill="#A0616A"/>
<path d="M98.2006 38.1755L98.3859 39.0293L97.9424 50.9635L96.0467 55.8583L94.1155 60.8483L93.8778 61.463L91.1287 65.3844L91.3945 63.6413L89.3697 62.7184L89.1807 62.6343L89.9105 60.5755L91.5891 55.8452L92.3152 53.7976L92.4724 47.7053L92.6184 41.9456C92.6438 40.9543 92.8749 39.9791 93.2972 39.0816C93.7195 38.1841 94.3237 37.3838 95.0717 36.7314L96.3929 35.5806C97.1789 36.3073 97.875 37.2302 98.2006 38.1755Z" fill="#E6E6E6"/>
<path d="M54.0348 67.9892L45.2623 67.8024C44.171 67.8007 43.1249 67.3671 42.3534 66.5967C41.5819 65.8262 41.148 64.7817 41.1467 63.6923L40.7725 54.5356C41.8496 62.0008 45.9891 66.7361 54.0348 67.9892Z" fill="#4416A8"/>
</g>
<defs>
<clipPath id="clip0_331_2370">
<rect width="116" height="105" fill="white" transform="translate(0.5 0.5)"/>
</clipPath>
</defs>
</svg>
