<svg width="37" height="36" viewBox="0 0 37 36" fill="none" xmlns="http://www.w3.org/2000/svg">
<g clip-path="url(#clip0_476_10279)">
<path fill-rule="evenodd" clip-rule="evenodd" d="M1.27422 10.7149C2.49095 4.82379 6.23909 1.54197 12.0838 0.550356C16.4043 -0.182578 20.7264 -0.1912 25.0399 0.571051C31.0583 1.6351 34.6758 5.10835 35.8289 11.0891C36.7191 15.7109 36.7329 20.3827 35.8152 25.001C34.583 30.8524 30.7403 34.4636 24.9162 35.4518C20.5958 36.1847 16.2736 36.1934 11.9601 35.4311C5.94178 34.3671 2.30878 30.7214 1.15564 24.7406C0.219035 20.0878 0.310118 15.3867 1.27422 10.7166V10.7149Z" fill="#4416A8"/>
<path d="M26.2061 9.5127H23.9789C23.5537 9.5127 23.209 9.8586 23.209 10.2853V12.1754C23.209 12.6021 23.5537 12.948 23.9789 12.948H26.2061C26.6313 12.948 26.976 12.6021 26.976 12.1754V10.2853C26.976 9.8586 26.6313 9.5127 26.2061 9.5127Z" fill="#2EE5C2"/>
<path d="M13.544 14.2619C14.209 13.9066 14.9686 13.729 15.8262 13.729C16.8453 13.729 17.7681 13.9877 18.5948 14.5068C19.4214 15.0259 20.0744 15.7674 20.5556 16.7297C21.0351 17.6938 21.2757 18.8113 21.2757 20.0857C21.2757 21.3601 21.0351 22.4828 20.5556 23.4537C20.0761 24.4247 19.4214 25.1731 18.5948 25.6991C17.7681 26.2251 16.8453 26.489 15.8262 26.489C14.9549 26.489 14.1936 26.3148 13.544 25.9664C12.8944 25.6181 12.3839 25.1559 12.0162 24.5764V26.3096H8.22852V9.86084H12.0162V15.6622C12.3702 15.0845 12.8806 14.6172 13.544 14.2619ZM16.6339 17.8507C16.1097 17.3092 15.4636 17.0401 14.6954 17.0401C13.9272 17.0401 13.3034 17.3143 12.7792 17.8628C12.2551 18.4112 11.9921 19.1596 11.9921 20.1081C11.9921 21.0566 12.2551 21.8051 12.7792 22.3535C13.3034 22.9019 13.9427 23.1761 14.6954 23.1761C15.4481 23.1761 16.0908 22.8984 16.6219 22.3431C17.1529 21.7878 17.4193 21.0359 17.4193 20.0874C17.4193 19.1389 17.1563 18.3939 16.6322 17.8541L16.6339 17.8507Z" fill="white"/>
<path d="M27.0552 13.9048V26.3078H23.2676V13.9048H27.0552Z" fill="white"/>
<path d="M29.8642 24.8008C29.7524 24.6146 29.5497 24.4904 29.3159 24.4904C28.9636 24.4904 28.6766 24.7767 28.6766 25.1319C28.6766 25.4872 28.9619 25.7735 29.3159 25.7735C29.5479 25.7735 29.7524 25.6493 29.8642 25.463L29.6459 25.332C29.5789 25.4441 29.4569 25.5182 29.3177 25.5182C29.1063 25.5182 28.9344 25.3458 28.9344 25.1337C28.9344 24.9215 29.1063 24.7491 29.3177 24.7491C29.4569 24.7491 29.5789 24.8232 29.6459 24.9353L29.8642 24.8043V24.8008ZM30.5928 25.1319C30.5928 24.4249 30.0205 23.8506 29.3159 23.8506C28.6113 23.8506 28.0391 24.4249 28.0391 25.1319C28.0391 25.839 28.6113 26.4133 29.3159 26.4133C30.0205 26.4133 30.5928 25.839 30.5928 25.1319ZM28.2934 25.1319C28.2934 24.5645 28.7505 24.1058 29.3159 24.1058C29.8813 24.1058 30.3385 24.5645 30.3385 25.1319C30.3385 25.6993 29.8813 26.158 29.3159 26.158C28.7505 26.158 28.2934 25.6993 28.2934 25.1319Z" fill="white"/>
</g>
<defs>
<clipPath id="clip0_476_10279">
<rect width="36" height="36" fill="white" transform="translate(0.5)"/>
</clipPath>
</defs>
</svg>
