<svg width="117" height="106" viewBox="0 0 117 106" fill="none" xmlns="http://www.w3.org/2000/svg">
<g clip-path="url(#clip0_331_40)">
<path d="M105.144 101.73C105.227 101.734 105.309 101.708 105.38 101.655C105.45 101.602 105.505 101.525 105.538 101.433C105.57 101.341 105.577 101.24 105.56 101.144C105.542 101.047 105.5 100.958 105.438 100.891L105.411 100.759C105.414 100.749 105.418 100.738 105.422 100.728C105.506 100.492 105.646 100.291 105.826 100.15C106.006 100.009 106.216 99.9342 106.432 99.9351C106.647 99.9361 106.857 100.013 107.036 100.155C107.215 100.298 107.354 100.5 107.437 100.737C107.766 101.681 108.186 102.626 108.289 103.624C108.335 104.065 108.315 104.513 108.232 104.946C109.006 102.938 109.408 100.755 109.411 98.5464C109.411 97.9921 109.385 97.4382 109.333 96.8873C109.291 96.4357 109.231 95.9873 109.155 95.5422C108.74 93.1267 107.849 90.8627 106.556 88.9361C105.93 88.5298 105.424 87.9051 105.105 87.1462C104.99 86.8734 104.908 86.5821 104.863 86.2815C104.934 86.2925 105.13 85.0134 105.076 84.935C105.175 84.7574 105.351 84.6691 105.458 84.4958C105.993 83.6338 106.729 83.7843 107.114 84.9556C107.935 85.4486 107.943 86.2662 107.439 87.0526C107.119 87.5528 107.075 88.2298 106.793 88.7653C106.822 88.8094 106.852 88.8521 106.881 88.8961C107.41 89.7052 107.872 90.5741 108.258 91.4901C108.164 90.4639 108.276 89.4257 108.586 88.4611C108.899 87.5621 109.486 86.8049 110.003 86.0277C110.14 85.8189 110.326 85.6631 110.537 85.5799C110.749 85.4966 110.976 85.4897 111.19 85.5601C111.405 85.6304 111.597 85.7748 111.743 85.9751C111.888 86.1753 111.981 86.4223 112.008 86.685C112.009 86.6965 112.01 86.7079 112.011 86.7194C111.935 86.7709 111.859 86.8256 111.786 86.8835C111.693 86.9569 111.622 87.0619 111.58 87.1846C111.539 87.3072 111.53 87.4419 111.554 87.571C111.578 87.7001 111.634 87.8175 111.715 87.9079C111.796 87.9983 111.898 88.0575 112.008 88.0776L112.019 88.0797C111.992 88.409 111.944 88.7353 111.875 89.0559C112.538 92.1076 111.106 93.2191 109.06 93.269C109.015 93.2965 108.971 93.3241 108.926 93.3502C109.314 94.6592 109.558 96.0227 109.651 97.4064C109.703 98.2228 109.7 99.0428 109.641 99.8586L109.645 99.8297C109.793 98.9226 110.2 98.1041 110.797 97.5124C111.683 96.6464 112.936 96.3275 113.892 95.6314C113.994 95.5537 114.112 95.5123 114.233 95.512C114.354 95.5116 114.472 95.5524 114.574 95.6294C114.676 95.7064 114.757 95.8165 114.808 95.9466C114.859 96.0768 114.878 96.2216 114.862 96.364L114.858 96.3944C114.716 96.4635 114.577 96.543 114.443 96.6326C114.366 96.6842 114.291 96.7389 114.217 96.7967C114.125 96.8702 114.053 96.9751 114.012 97.0978C113.97 97.2205 113.961 97.3552 113.985 97.4843C114.009 97.6134 114.065 97.7308 114.146 97.8212C114.227 97.9116 114.33 97.9707 114.44 97.9909L114.451 97.9929C114.459 97.9943 114.466 97.9957 114.474 97.9971C114.23 98.6888 113.888 99.3255 113.463 99.8792C113.048 102.543 111.266 102.796 109.36 102.02H109.359C109.15 103.101 108.847 104.153 108.455 105.159H105.224C105.213 105.117 105.202 105.073 105.192 105.03C105.491 105.052 105.791 105.031 106.086 104.967C105.846 104.617 105.607 104.264 105.367 103.915C105.362 103.908 105.357 103.901 105.352 103.894C105.23 103.715 105.108 103.538 104.986 103.359L104.986 103.358C104.979 102.81 105.033 102.262 105.144 101.73Z" fill="#F2F2F2"/>
<path d="M102.267 11.9587H0.679253C0.631712 11.9587 0.586121 11.9362 0.552505 11.8963C0.518888 11.8563 0.5 11.8021 0.5 11.7455C0.5 11.689 0.518888 11.6348 0.552505 11.5948C0.586121 11.5548 0.631712 11.5323 0.679253 11.5323H102.267C102.315 11.5323 102.36 11.5548 102.394 11.5948C102.428 11.6348 102.447 11.689 102.447 11.7455C102.447 11.8021 102.428 11.8563 102.394 11.8963C102.36 11.9362 102.315 11.9587 102.267 11.9587Z" fill="#E6E6E6"/>
<path d="M5.76197 5.55917C6.59916 5.55917 7.27784 4.73409 7.27784 3.71629C7.27784 2.6985 6.59916 1.87341 5.76197 1.87341C4.92477 1.87341 4.24609 2.6985 4.24609 3.71629C4.24609 4.73409 4.92477 5.55917 5.76197 5.55917Z" fill="#E6E6E6"/>
<path d="M10.9983 5.55917C11.8355 5.55917 12.5142 4.73409 12.5142 3.71629C12.5142 2.6985 11.8355 1.87341 10.9983 1.87341C10.1611 1.87341 9.48242 2.6985 9.48242 3.71629C9.48242 4.73409 10.1611 5.55917 10.9983 5.55917Z" fill="#E6E6E6"/>
<path d="M16.2346 5.55917C17.0718 5.55917 17.7505 4.73409 17.7505 3.71629C17.7505 2.6985 17.0718 1.87341 16.2346 1.87341C15.3974 1.87341 14.7188 2.6985 14.7188 3.71629C14.7188 4.73409 15.3974 5.55917 16.2346 5.55917Z" fill="#E6E6E6"/>
<path d="M22.206 5.17284C22.1821 5.17287 22.1585 5.16722 22.1365 5.15621C22.1145 5.1452 22.0945 5.12905 22.0779 5.10872L21.055 3.86529C21.0223 3.82547 21.0039 3.77196 21.0039 3.71624C21.0039 3.66052 21.0223 3.60701 21.055 3.56719L22.0779 2.32386C22.1112 2.28409 22.1564 2.26158 22.2037 2.26123C22.2509 2.26089 22.2964 2.28273 22.3301 2.32201C22.3639 2.36129 22.3833 2.41484 22.384 2.47101C22.3848 2.52718 22.3668 2.58143 22.3341 2.62197L21.4339 3.71624L22.3341 4.81061C22.3588 4.84061 22.3755 4.8786 22.3821 4.91982C22.3887 4.96104 22.3849 5.00365 22.3712 5.04233C22.3575 5.08101 22.3346 5.11402 22.3052 5.13723C22.2758 5.16045 22.2413 5.17283 22.206 5.17284Z" fill="#E6E6E6"/>
<path d="M23.9246 5.17288C23.8893 5.17288 23.8548 5.16049 23.8254 5.13728C23.7961 5.11406 23.7731 5.08105 23.7594 5.04237C23.7457 5.00369 23.7419 4.96108 23.7485 4.91986C23.7551 4.87864 23.7718 4.84065 23.7965 4.81066L24.6966 3.71628L23.7965 2.62201C23.7798 2.60206 23.7665 2.57838 23.7575 2.55231C23.7485 2.52625 23.744 2.49832 23.7441 2.47016C23.7443 2.44199 23.7491 2.41413 23.7584 2.3882C23.7676 2.36227 23.7811 2.33878 23.7981 2.31908C23.815 2.29939 23.835 2.28387 23.857 2.27345C23.879 2.26302 23.9026 2.25788 23.9263 2.25833C23.9499 2.25878 23.9733 2.2648 23.995 2.27606C24.0167 2.28731 24.0364 2.30358 24.0528 2.32391L25.0755 3.56723C25.1083 3.60705 25.1266 3.66056 25.1266 3.71628C25.1266 3.77201 25.1083 3.82551 25.0755 3.86533L24.0528 5.10876C24.0361 5.12909 24.0162 5.14524 23.9941 5.15625C23.9721 5.16726 23.9485 5.17292 23.9246 5.17288Z" fill="#E6E6E6"/>
<path d="M93.2085 2.08679H91.3066C91.2551 2.08677 91.204 2.09884 91.1564 2.12229C91.1087 2.14575 91.0655 2.18013 91.029 2.22349C90.9925 2.26684 90.9636 2.31831 90.9439 2.37496C90.9242 2.43161 90.914 2.49233 90.9141 2.55364V4.81752C90.914 4.87883 90.9242 4.93954 90.9439 4.99619C90.9636 5.05284 90.9925 5.10431 91.029 5.14766C91.0655 5.19102 91.1087 5.22541 91.1564 5.24886C91.204 5.27231 91.2551 5.28438 91.3066 5.28436H93.2085C93.3128 5.28448 93.4129 5.2354 93.4868 5.14788C93.5608 5.06037 93.6025 4.94156 93.6029 4.81752V2.55364C93.6025 2.42959 93.5608 2.31078 93.4868 2.22327C93.4129 2.13575 93.3128 2.08667 93.2085 2.08679Z" fill="#E6E6E6"/>
<path d="M88.5483 2.08679H86.6465C86.5949 2.08677 86.5439 2.09884 86.4962 2.12229C86.4486 2.14575 86.4053 2.18013 86.3688 2.22349C86.3324 2.26684 86.3035 2.31831 86.2838 2.37496C86.264 2.43161 86.2539 2.49233 86.2539 2.55364V4.81752C86.2539 4.87883 86.264 4.93954 86.2838 4.99619C86.3035 5.05284 86.3324 5.10431 86.3688 5.14766C86.4053 5.19102 86.4486 5.22541 86.4962 5.24886C86.5439 5.27231 86.5949 5.28438 86.6465 5.28436H88.5483C88.6527 5.28448 88.7527 5.2354 88.8267 5.14788C88.9006 5.06037 88.9423 4.94156 88.9427 4.81752V2.55364C88.9423 2.42959 88.9006 2.31078 88.8267 2.22327C88.7527 2.13575 88.6527 2.08667 88.5483 2.08679Z" fill="#E6E6E6"/>
<path d="M97.5991 2.19336H95.6973C95.6457 2.19334 95.5946 2.20541 95.547 2.22886C95.4994 2.25231 95.4561 2.2867 95.4196 2.33006C95.3832 2.37341 95.3543 2.42488 95.3345 2.48153C95.3148 2.53818 95.3047 2.59889 95.3047 2.6602V4.92408C95.3047 4.98539 95.3148 5.04611 95.3345 5.10276C95.3543 5.1594 95.3832 5.21088 95.4196 5.25423C95.4561 5.29759 95.4994 5.33197 95.547 5.35543C95.5946 5.37888 95.6457 5.39094 95.6973 5.39092H97.5991C97.7034 5.39104 97.8035 5.34196 97.8775 5.25445C97.9514 5.16693 97.9931 5.04813 97.9935 4.92408V2.6602C97.9931 2.53616 97.9514 2.41735 97.8775 2.32983C97.8035 2.24232 97.7034 2.19324 97.5991 2.19336Z" fill="#E6E6E6"/>
<path d="M42.7884 5.51457H30.4199C29.992 5.51457 29.5817 5.31244 29.2792 4.95264C28.9766 4.59285 28.8066 4.10486 28.8066 3.59603C28.8066 3.0872 28.9766 2.59921 29.2792 2.23942C29.5817 1.87962 29.992 1.67749 30.4199 1.67749H42.7884C43.2162 1.67749 43.6266 1.87962 43.9291 2.23942C44.2317 2.59921 44.4016 3.0872 44.4016 3.59603C44.4016 4.10486 44.2317 4.59285 43.9291 4.95264C43.6266 5.31244 43.2162 5.51457 42.7884 5.51457Z" fill="#E6E6E6"/>
<path d="M59.4583 5.51457H47.0898C46.662 5.51457 46.2516 5.31244 45.9491 4.95264C45.6465 4.59285 45.4766 4.10486 45.4766 3.59603C45.4766 3.0872 45.6465 2.59921 45.9491 2.23942C46.2516 1.87962 46.662 1.67749 47.0898 1.67749H59.4583C59.8862 1.67749 60.2965 1.87962 60.599 2.23942C60.9016 2.59921 61.0716 3.0872 61.0716 3.59603C61.0716 4.10486 60.9016 4.59285 60.599 4.95264C60.2965 5.31244 59.8862 5.51457 59.4583 5.51457Z" fill="#E6E6E6"/>
<path d="M81.3266 5.40793H64.3018C63.7545 5.40793 63.2297 5.14939 62.8427 4.68918C62.4557 4.22897 62.2383 3.6048 62.2383 2.95396C62.2383 2.30313 62.4557 1.67896 62.8427 1.21875C63.2297 0.758542 63.7545 0.5 64.3018 0.5H81.3266C81.8739 0.5 82.3988 0.758542 82.7857 1.21875C83.1727 1.67896 83.3901 2.30313 83.3901 2.95396C83.3901 3.6048 83.1727 4.22897 82.7857 4.68918C82.3988 5.14939 81.8739 5.40793 81.3266 5.40793Z" fill="#DF4765"/>
<path d="M81.5664 4.41414C81.534 4.41419 81.5019 4.40662 81.4719 4.39187C81.442 4.37711 81.4148 4.35547 81.3919 4.32818L79.4238 1.98767C79.4009 1.96042 79.3827 1.92808 79.3703 1.89248C79.3579 1.85689 79.3516 1.81874 79.3516 1.78021C79.3516 1.74168 79.3579 1.70353 79.3703 1.66793C79.3827 1.63234 79.4009 1.59999 79.4238 1.57275C79.4467 1.54551 79.4739 1.52389 79.5039 1.50915C79.5338 1.49441 79.5659 1.48682 79.5983 1.48682C79.6307 1.48682 79.6628 1.49441 79.6927 1.50915C79.7226 1.52389 79.7498 1.5455 79.7727 1.57275L81.7408 3.91327C81.7753 3.95431 81.7988 4.00659 81.8083 4.0635C81.8179 4.12041 81.813 4.1794 81.7943 4.23301C81.7756 4.28662 81.744 4.33245 81.7034 4.36469C81.6629 4.39693 81.6152 4.41414 81.5664 4.41414Z" fill="white"/>
<path d="M79.6041 4.41419C79.6365 4.41423 79.6686 4.40666 79.6986 4.39191C79.7285 4.37716 79.7557 4.35551 79.7786 4.32822L81.7467 1.98771C81.7928 1.93265 81.8186 1.85809 81.8186 1.78038C81.8185 1.70268 81.7925 1.62818 81.7463 1.57324C81.7001 1.51829 81.6375 1.48739 81.5721 1.4873C81.5068 1.48722 81.4441 1.51796 81.3978 1.57279L79.4297 3.91332C79.3952 3.95435 79.3717 4.00663 79.3622 4.06354C79.3526 4.12046 79.3575 4.17945 79.3762 4.23306C79.3949 4.28667 79.4265 4.33249 79.4671 4.36473C79.5076 4.39698 79.5553 4.41418 79.6041 4.41419Z" fill="white"/>
<path d="M60.9084 21.3743H41.9297C41.8758 21.3745 41.8225 21.362 41.7728 21.3376C41.723 21.3132 41.6778 21.2773 41.6397 21.2321C41.6016 21.1869 41.5714 21.1332 41.5508 21.0741C41.5301 21.015 41.5195 20.9516 41.5195 20.8876C41.5195 20.8236 41.5301 20.7602 41.5508 20.7011C41.5714 20.642 41.6016 20.5883 41.6397 20.5431C41.6778 20.4979 41.723 20.462 41.7728 20.4376C41.8225 20.4132 41.8758 20.4007 41.9297 20.4009H60.9084C61.0168 20.4011 61.1206 20.4526 61.1972 20.5438C61.2738 20.635 61.3168 20.7587 61.3168 20.8876C61.3168 21.0165 61.2738 21.1402 61.1972 21.2314C61.1206 21.3226 61.0168 21.374 60.9084 21.3743Z" fill="#DF4765"/>
<path d="M65.711 25.8241H37.125C37.0712 25.8243 37.0178 25.8118 36.9681 25.7874C36.9183 25.763 36.8731 25.7272 36.835 25.682C36.7969 25.6367 36.7667 25.583 36.7461 25.5239C36.7255 25.4648 36.7148 25.4014 36.7148 25.3374C36.7148 25.2734 36.7255 25.2101 36.7461 25.1509C36.7667 25.0918 36.7969 25.0381 36.835 24.9929C36.8731 24.9477 36.9183 24.9119 36.9681 24.8875C37.0178 24.8631 37.0712 24.8506 37.125 24.8507H65.711C65.8194 24.851 65.9233 24.9024 65.9999 24.9936C66.0765 25.0849 66.1195 25.2085 66.1195 25.3374C66.1195 25.4663 66.0765 25.59 65.9999 25.6812C65.9233 25.7725 65.8194 25.8239 65.711 25.8241Z" fill="#F2F2F2"/>
<path d="M65.7117 29.2997H37.1244C37.0158 29.2997 36.9116 29.351 36.8348 29.4423C36.758 29.5337 36.7148 29.6576 36.7148 29.7868C36.7148 29.916 36.758 30.0399 36.8348 30.1312C36.9116 30.2226 37.0158 30.2739 37.1244 30.2739H65.7117C65.8203 30.2739 65.9245 30.2226 66.0013 30.1312C66.0781 30.0399 66.1213 29.916 66.1213 29.7868C66.1213 29.6576 66.0781 29.5337 66.0013 29.4423C65.9245 29.351 65.8203 29.2997 65.7117 29.2997Z" fill="#F2F2F2"/>
<path d="M65.711 34.7237H37.125C37.0712 34.7238 37.0178 34.7113 36.9681 34.6869C36.9183 34.6625 36.8731 34.6267 36.835 34.5815C36.7969 34.5363 36.7667 34.4826 36.7461 34.4235C36.7255 34.3643 36.7148 34.301 36.7148 34.237C36.7148 34.173 36.7255 34.1096 36.7461 34.0505C36.7667 33.9913 36.7969 33.9376 36.835 33.8924C36.8731 33.8472 36.9183 33.8114 36.9681 33.787C37.0178 33.7626 37.0712 33.7501 37.125 33.7502H65.711C65.8194 33.7505 65.9233 33.8019 65.9999 33.8932C66.0765 33.9844 66.1195 34.1081 66.1195 34.237C66.1195 34.3659 66.0765 34.4895 65.9999 34.5808C65.9233 34.672 65.8194 34.7234 65.711 34.7237Z" fill="#F2F2F2"/>
<path d="M65.7121 39.1734H37.1261C37.0175 39.1734 36.9134 39.1221 36.8367 39.0308C36.7599 38.9396 36.7168 38.8158 36.7168 38.6867C36.7168 38.5576 36.7599 38.4338 36.8367 38.3425C36.9134 38.2512 37.0175 38.2 37.1261 38.2H65.7121C65.8207 38.2 65.9248 38.2512 66.0015 38.3425C66.0783 38.4338 66.1214 38.5576 66.1214 38.6867C66.1214 38.8158 66.0783 38.9396 66.0015 39.0308C65.9248 39.1221 65.8207 39.1734 65.7121 39.1734Z" fill="#F2F2F2"/>
<path d="M65.7121 43.6499H37.1261C37.0175 43.6499 36.9134 43.5987 36.8367 43.5074C36.7599 43.4161 36.7168 43.2923 36.7168 43.1632C36.7168 43.0341 36.7599 42.9103 36.8367 42.8191C36.9134 42.7278 37.0175 42.6765 37.1261 42.6765H65.7121C65.8207 42.6765 65.9248 42.7278 66.0015 42.8191C66.0783 42.9103 66.1214 43.0341 66.1214 43.1632C66.1214 43.2923 66.0783 43.4161 66.0015 43.5074C65.9248 43.5987 65.8207 43.6499 65.7121 43.6499Z" fill="#F2F2F2"/>
<path d="M65.7121 48.1265H37.1261C37.0175 48.1265 36.9134 48.0752 36.8367 47.984C36.7599 47.8927 36.7168 47.7689 36.7168 47.6398C36.7168 47.5107 36.7599 47.3869 36.8367 47.2956C36.9134 47.2044 37.0175 47.1531 37.1261 47.1531H65.7121C65.8207 47.1531 65.9248 47.2044 66.0015 47.2956C66.0783 47.3869 66.1214 47.5107 66.1214 47.6398C66.1214 47.7689 66.0783 47.8927 66.0015 47.984C65.9248 48.0752 65.8207 48.1265 65.7121 48.1265Z" fill="#F2F2F2"/>
<path d="M65.7121 52.6032H37.1261C37.0175 52.6032 36.9134 52.5519 36.8367 52.4606C36.7599 52.3694 36.7168 52.2456 36.7168 52.1165C36.7168 51.9874 36.7599 51.8636 36.8367 51.7723C36.9134 51.681 37.0175 51.6298 37.1261 51.6298H65.7121C65.8207 51.6298 65.9248 51.681 66.0015 51.7723C66.0783 51.8636 66.1214 51.9874 66.1214 52.1165C66.1214 52.2456 66.0783 52.3694 66.0015 52.4606C65.9248 52.5519 65.8207 52.6032 65.7121 52.6032Z" fill="#F2F2F2"/>
<path d="M65.7121 57.0798H37.1261C37.0175 57.0798 36.9134 57.0285 36.8367 56.9372C36.7599 56.8459 36.7168 56.7221 36.7168 56.593C36.7168 56.464 36.7599 56.3402 36.8367 56.2489C36.9134 56.1576 37.0175 56.1063 37.1261 56.1063H65.7121C65.8207 56.1063 65.9248 56.1576 66.0015 56.2489C66.0783 56.3402 66.1214 56.464 66.1214 56.593C66.1214 56.7221 66.0783 56.8459 66.0015 56.9372C65.9248 57.0285 65.8207 57.0798 65.7121 57.0798Z" fill="#F2F2F2"/>
<path d="M81.0511 4.82451C81.0981 5.2965 81.2981 5.72806 81.6086 6.02737C81.919 6.32668 82.3154 6.47011 82.7134 6.42714C82.7942 6.4169 82.8742 6.39872 82.9524 6.37278L86.0391 11.5731L88.8091 10.6389L83.9331 4.05877C83.8175 3.68115 83.6001 3.35964 83.3147 3.14442C83.0294 2.9292 82.6921 2.83237 82.3556 2.86905C82.1643 2.8921 81.9787 2.95974 81.8094 3.0681C81.6401 3.17646 81.4904 3.32343 81.3688 3.5006C81.2472 3.67777 81.1562 3.88168 81.1009 4.10068C81.0456 4.31969 81.0271 4.5495 81.0465 4.777C81.0479 4.79286 81.0494 4.8087 81.0511 4.82451Z" fill="#A0616A"/>
<path d="M99.6173 103.04L97.8794 103.04L97.0527 95.0686L99.6177 95.0688L99.6173 103.04Z" fill="#A0616A"/>
<path d="M99.6779 105.196L94.334 105.196V105.115C94.334 104.459 94.5532 103.83 94.9433 103.366C95.3333 102.902 95.8624 102.642 96.414 102.642L97.3903 101.761L99.2115 102.642L99.678 102.642L99.6779 105.196Z" fill="#2F2E41"/>
<path d="M93.8546 98.1417L92.1739 98.6672L89.6699 91.2079L92.1504 90.4324L93.8546 98.1417Z" fill="#A0616A"/>
<path d="M94.375 100.208L89.2066 101.824L89.1894 101.746C89.0492 101.112 89.1266 100.437 89.4047 99.8707C89.6827 99.3041 90.1387 98.892 90.6722 98.7252L91.428 97.5782L93.3777 97.8793L93.8289 97.7383L94.375 100.208Z" fill="#2F2E41"/>
<path d="M91.1869 50.2804C91.1869 50.2804 87.7112 54.0802 88.1267 54.6703C88.5421 55.2604 89.5545 54.7758 88.5421 56.0214C87.5297 57.267 87.0797 54.6568 87.5297 57.7009C87.9796 60.7451 85.6827 76.4425 85.6827 76.4425C85.6827 76.4425 85.1523 79.4166 85.4973 79.8463C85.8423 80.2761 86.36 79.6562 85.9887 80.9025C85.6174 82.1489 84.5898 81.6138 85.4973 82.684C86.4048 83.7542 90.0216 95.1974 90.0216 95.1974L93.28 93.0812C93.28 93.0812 92.5917 81.3463 91.5793 80.1423C90.5669 78.9384 95.1346 66.6898 95.1346 66.6898C95.1346 66.6898 95.5209 91.8401 95.9686 93.0812C96.4163 94.3224 97.2037 93.8945 96.4163 94.8442C95.6289 95.7939 95.1304 94.8904 95.8296 96.2786C96.5288 97.6667 96.2896 98.7032 96.2896 98.7032H100.278L103.822 61.493L102.78 51.1515L91.1869 50.2804Z" fill="#2F2E41"/>
<path d="M88.4043 53.79C91.7169 49.1788 90.598 43.3137 89.2833 37.3932L89.5334 28.6469C89.5457 28.2178 89.6446 27.7986 89.8218 27.4246C89.999 27.0506 90.2492 26.7327 90.5514 26.4979L93.9332 23.8706L94.7042 20.3993L98.7781 20.9806L100.89 24.5693L103.117 26.5911C103.676 27.0988 104.101 27.786 104.343 28.5717C104.585 29.3575 104.632 30.209 104.48 31.0259L102.349 42.4876C102.349 42.4876 103.241 48.4295 102.697 49.0858C102.153 49.742 100.751 49.0861 101.863 49.8228C103.196 50.7068 104.409 50.5437 103.734 51.3463C103.059 52.149 103.913 53.2649 103.913 53.2649L88.4043 53.79Z" fill="#E6E6E6"/>
<path d="M101.896 30.8222C101.896 30.8222 105.273 30.274 104.414 28.81C103.555 27.3461 102.328 23.7485 98.7116 22.4951L88.2008 7.99036C88.2008 7.99036 84.423 10.4342 85.3771 10.9691C86.3313 11.5039 86.512 12.0292 86.512 12.0292C86.512 12.0292 86.0594 13.0485 86.9667 13.8939C87.874 14.7393 90.6624 20.6712 90.6624 20.6712L96.6617 30.2911L101.896 30.8222Z" fill="#E6E6E6"/>
<path d="M95.1853 21.2795C97.4719 21.2795 99.3256 19.075 99.3256 16.3557C99.3256 13.6363 97.4719 11.4319 95.1853 11.4319C92.8986 11.4319 91.0449 13.6363 91.0449 16.3557C91.0449 19.075 92.8986 21.2795 95.1853 21.2795Z" fill="#A0616A"/>
<path d="M96.7914 20.7516L97.0627 20.8545C96.2143 20.9392 94.7023 21.5019 94.8504 21.1908C94.9986 20.8797 94.4388 19.7061 94.712 19.5574C94.9959 19.4389 95.2491 19.2348 95.4468 18.9649C95.6199 18.6767 95.6161 18.2008 95.3564 18.0247C95.1044 17.8508 94.7927 18.0384 94.5427 18.2146C94.2907 18.3884 93.8251 15.8308 93.9444 15.0324C93.2423 14.5749 92.392 15.4511 91.6033 15.2795C91.1204 15.1742 90.7723 14.703 90.553 14.1677C90.9112 13.7635 91.1779 13.2583 91.3282 12.699C90.9934 12.8996 90.6356 13.0406 90.2663 13.1176C90.2001 12.7022 90.2093 12.2748 90.2933 11.864C90.3577 11.536 90.4892 11.232 90.6761 10.979C90.863 10.726 91.0996 10.5318 91.3648 10.4136C91.9034 10.2077 92.5671 10.4616 92.8267 11.0587C92.843 10.7473 92.7758 10.4378 92.6348 10.1747C92.4938 9.91158 92.2862 9.70848 92.0419 9.5946C92.2201 9.48461 92.4174 9.42509 92.6182 9.42067C92.819 9.41626 93.0179 9.46708 93.1995 9.56917C93.381 9.67125 93.5403 9.82185 93.6648 10.0092C93.7894 10.1965 93.8758 10.4156 93.9175 10.6492C94.7862 10.1315 95.783 10.0047 96.7241 10.2923C97.6552 10.5829 98.8902 11.8114 98.8902 11.8114C100.991 12.3627 100.891 21.8611 96.7914 20.7516Z" fill="#2F2E41"/>
<path d="M85.5975 61.9908C85.8779 61.6521 86.036 61.1966 86.0383 60.7213C86.0406 60.2461 85.8869 59.7885 85.6098 59.4459C85.5526 59.3774 85.4906 59.3146 85.4247 59.2581L86.9072 53.1418L84.5621 51.1553L83.293 59.795C83.1174 60.1383 83.0424 60.5412 83.0796 60.9406C83.1168 61.34 83.2641 61.7135 83.4986 62.0028C83.6334 62.166 83.7938 62.2959 83.9708 62.3853C84.1478 62.4747 84.3378 62.5217 84.5301 62.5238C84.7224 62.5258 84.9131 62.4828 85.0914 62.3972C85.2697 62.3116 85.4321 62.185 85.5692 62.0248C85.5788 62.0136 85.5882 62.0023 85.5975 61.9908Z" fill="#A0616A"/>
<path d="M94.4311 27.5114C94.4311 27.5114 90.1766 26.008 89.6876 27.6958C89.1986 29.3837 89.0366 30.4555 87.0179 37.1922L83.3496 55.8361C83.3496 55.8361 87.2351 58.0281 87.0368 56.796C86.8384 55.564 87.089 55.0809 87.089 55.0809C87.089 55.0809 88.0483 54.9157 88.0885 53.5458C88.1288 52.176 90.5183 46.0027 90.5183 46.0027L93.5234 34.5716L94.4311 27.5114Z" fill="#E6E6E6"/>
<path d="M70.6699 105.246C70.6698 105.28 70.6753 105.313 70.686 105.344C70.6967 105.374 70.7124 105.402 70.7322 105.426C70.752 105.45 70.7756 105.468 70.8015 105.481C70.8274 105.494 70.8552 105.5 70.8832 105.5H116.286C116.343 105.5 116.397 105.473 116.437 105.426C116.477 105.378 116.5 105.314 116.5 105.246C116.5 105.179 116.477 105.115 116.437 105.067C116.397 105.019 116.343 104.993 116.286 104.993H70.8832C70.8552 104.993 70.8274 104.999 70.8015 105.012C70.7756 105.025 70.752 105.043 70.7322 105.067C70.7124 105.09 70.6967 105.118 70.686 105.149C70.6753 105.18 70.6698 105.213 70.6699 105.246Z" fill="#CCCCCC"/>
</g>
<defs>
<clipPath id="clip0_331_40">
<rect width="116" height="105" fill="white" transform="translate(0.5 0.5)"/>
</clipPath>
</defs>
</svg>
