<svg width="117" height="106" viewBox="0 0 117 106" fill="none" xmlns="http://www.w3.org/2000/svg">
<g clip-path="url(#clip0_331_2284)">
<path d="M105.285 51.5018H8.2002V54.2H105.285V51.5018Z" fill="#E6E6E6"/>
<path d="M11.1617 50.282C11.3995 50.0083 11.548 49.6349 11.548 49.2202V42.7748C11.548 42.3558 11.3973 41.9767 11.1563 41.7018C11.0307 41.5596 10.8784 41.4459 10.711 41.3681C10.5553 41.298 10.3863 41.2582 10.2089 41.2582C9.469 41.2582 8.86975 41.9368 8.86975 42.7748V49.2202C8.86975 49.5999 8.99365 49.9461 9.1971 50.212C8.60535 50.5589 8.2002 51.2572 8.2002 52.0638H12.0501C12.0501 51.3077 11.6936 50.6476 11.1617 50.282Z" fill="#3F3D56"/>
<path d="M104.325 50.0428C104.605 49.7649 104.783 49.3576 104.783 48.9022V42.4568C104.783 41.6188 104.184 40.9402 103.444 40.9402C103.267 40.9402 103.098 40.98 102.942 41.0501C102.775 41.1279 102.622 41.2416 102.497 41.3838C102.256 41.6587 102.105 42.0378 102.105 42.4568V48.9022C102.105 49.3261 102.261 49.7062 102.508 49.9813C101.875 50.3115 101.436 51.0339 101.436 51.8742H105.285C105.285 51.084 104.897 50.3965 104.325 50.0428Z" fill="#3F3D56"/>
<path d="M10.5821 54.0315H8.2002V56.0448H10.5821V54.0315Z" fill="#E6E6E6"/>
<path d="M11.9121 56.0448H9.38957L9.2791 55.6657L8.85058 54.2003L8.83887 54.1605L9.1636 54.0316L11.0869 53.2676L11.3631 54.2003L11.7983 55.6657L11.9121 56.0448Z" fill="#E6E6E6"/>
<path d="M104.646 54.1605L104.634 54.2003L104.205 55.6657L104.095 56.0448H101.572L101.686 55.6657L102.121 54.2003L102.397 53.2676L104.321 54.0316L104.646 54.1605Z" fill="#E6E6E6"/>
<path d="M105.285 54.0315H102.903V56.0448H105.285V54.0315Z" fill="#E6E6E6"/>
<path d="M57.412 0.5H12.8867V20.026H57.412V0.5Z" fill="#3F3D56"/>
<path d="M57.412 0.5H12.8867V20.026H57.412V0.5Z" fill="#3F3D56"/>
<path d="M13.5566 0.5V19.2677H47.2676C52.5006 19.2677 56.7428 14.4633 56.7428 8.53669V0.5H13.5566Z" fill="white"/>
<path d="M112.702 0.5H4.29804C2.20401 0.5 0.5 2.42985 0.5 4.8014V51.7434C0.5 54.1149 2.20401 56.0448 4.29804 56.0448H112.702C114.796 56.0448 116.5 54.1149 116.5 51.7434V4.8014C116.5 2.42985 114.796 0.5 112.702 0.5ZM116.165 51.7434C116.165 53.9102 114.615 55.6657 112.702 55.6657H4.29804C2.38479 55.6657 0.834776 53.9102 0.834776 51.7434V4.8014C0.834776 2.63459 2.38479 0.879145 4.29804 0.879145H90.1062C104.498 0.879145 116.165 14.0924 116.165 30.3918V51.7434Z" fill="#3F3D56"/>
<path d="M60.9892 40.1643H54.7741C54.5916 40.1643 54.4443 40.333 54.4443 40.5416V51.66H61.3223V40.5416C61.3223 40.333 61.1733 40.1643 60.9892 40.1643ZM58.6374 45.6524C58.6374 45.8401 58.5822 46.0107 58.4884 46.151C58.3545 46.352 58.1419 46.4828 57.9026 46.4828C57.6649 46.4828 57.4523 46.352 57.3184 46.151C57.2247 46.0107 57.1694 45.8401 57.1694 45.6524V44.3614C57.1728 43.9084 57.5008 43.5387 57.9026 43.5387C58.3043 43.5387 58.6341 43.9084 58.6374 44.3614V45.6524Z" fill="#2F2E41"/>
<path d="M54.4229 51.3054V52.3765C54.4229 52.4921 54.5049 52.5869 54.607 52.5869H61.1585C61.259 52.5869 61.3427 52.4921 61.3427 52.3765V51.3054H54.4229Z" fill="#3F3D56"/>
<path d="M71.2817 22.8127H44.7139C44.2402 22.8127 43.8535 23.2507 43.8535 23.7871V44.0904C43.8535 44.6288 44.2402 45.0667 44.7139 45.0667H71.2817C71.7555 45.0667 72.1421 44.6288 72.1421 44.0904V23.7871C72.1421 23.2507 71.7554 22.8127 71.2817 22.8127Z" fill="#3F3D56"/>
<path d="M71.0578 23.516H44.9369C44.6827 23.516 44.4766 23.7494 44.4766 24.0373V38.0148C44.4766 41.5054 46.9983 44.3614 50.0805 44.3614H71.0595C71.3127 44.3614 71.5198 44.1268 71.5198 43.8401V24.0392C71.5198 23.7514 71.3119 23.516 71.0578 23.516Z" fill="white"/>
<path d="M66.2503 52.5699L66.0512 51.5026L66.0093 51.2732C65.9825 51.1234 65.8654 51.0154 65.7298 51.0154H50.6699C50.5359 51.0154 50.4188 51.1234 50.3903 51.2732L50.3485 51.5026L50.1493 52.5699C50.1325 52.6666 50.1526 52.7651 50.2079 52.841C50.2614 52.9168 50.3435 52.9604 50.4288 52.9604H65.9708C66.0579 52.9604 66.1382 52.9168 66.1934 52.841C66.247 52.7651 66.2688 52.6666 66.2503 52.5699Z" fill="#3F3D56"/>
<path d="M51.1981 51.2491H50.843C50.8089 51.2491 50.7812 51.2805 50.7812 51.3191V51.5044C50.7812 51.5431 50.8089 51.5744 50.843 51.5744H51.1981C51.2323 51.5744 51.2599 51.5431 51.2599 51.5044V51.3191C51.2599 51.2805 51.2323 51.2491 51.1981 51.2491Z" fill="#E6E6E6"/>
<path d="M65.5468 51.7913H65.1917C65.1575 51.7913 65.1299 51.8226 65.1299 51.8612V52.0465C65.1299 52.0852 65.1575 52.1165 65.1917 52.1165H65.5468C65.5809 52.1165 65.6086 52.0852 65.6086 52.0465V51.8612C65.6086 51.8226 65.5809 51.7913 65.5468 51.7913Z" fill="#E6E6E6"/>
<path d="M59.1328 52.4418H55.427C55.3929 52.4418 55.3652 52.4731 55.3652 52.5118V52.6971C55.3652 52.7357 55.3929 52.767 55.427 52.767H59.1328C59.1669 52.767 59.1946 52.7357 59.1946 52.6971V52.5118C59.1946 52.4731 59.1669 52.4418 59.1328 52.4418Z" fill="#E6E6E6"/>
<path d="M16.1772 37.4468C14.1683 29.9023 14.0425 22.3472 16.4112 14.7781C16.422 13.8228 17.1136 13.0576 17.9571 13.0677L33.0736 13.2678C33.9171 13.2801 34.5926 14.0633 34.5837 15.0186L34.3498 37.6873C34.3389 38.6426 33.6474 39.4078 32.8039 39.3977L17.6874 39.1976C16.8439 39.1853 16.1683 38.4021 16.1772 37.4468Z" fill="#F2F2F2"/>
<path opacity="0.2" d="M19.3136 38.3446C18.4701 38.3324 17.7946 37.5492 17.8035 36.5939C15.7945 29.0494 15.6687 21.4943 18.0374 13.9251C18.0421 13.6239 18.1171 13.3295 18.2545 13.0716L17.9571 13.0676C17.1136 13.0575 16.422 13.8226 16.4112 14.7779C14.0425 22.3471 14.1683 29.9022 16.1772 37.4466C16.1683 38.402 16.8439 39.1852 17.6874 39.1974L32.8038 39.3975C33.3504 39.4027 33.8575 39.0757 34.1326 38.5408L19.3136 38.3446Z" fill="black"/>
<path d="M30.4487 25.9333L20.3185 25.831C19.9828 25.8271 19.7134 25.5159 19.7168 25.1357C19.7202 24.7561 19.9942 24.4513 20.3293 24.4542L30.4595 24.5565C30.7952 24.5611 31.064 24.873 31.0599 25.2532C31.0559 25.6317 30.7829 25.9354 30.4487 25.9333Z" fill="white"/>
<path d="M22.5761 22.0784L20.3475 22.0559C20.0118 22.0537 19.7412 21.7437 19.7432 21.3635C19.7451 20.9833 20.0188 20.6769 20.3545 20.6791L20.3583 20.6791L22.587 20.7016C22.9226 20.7062 23.1915 21.0181 23.1874 21.3983C23.1834 21.7768 22.9103 22.0806 22.5761 22.0784Z" fill="white"/>
<path d="M30.4006 31.9856L20.2704 31.8833C19.9347 31.8787 19.6659 31.5668 19.67 31.1867C19.674 30.8082 19.9471 30.5044 20.2813 30.5066L30.4114 30.6089C30.7471 30.6111 31.0177 30.9211 31.0157 31.3012C31.0138 31.6814 30.7401 31.9879 30.4044 31.9857L30.4006 31.9856Z" fill="white"/>
<path d="M30.4247 28.9594L20.2945 28.8571C19.9589 28.8542 19.6888 28.5436 19.6914 28.1634C19.694 27.7833 19.9682 27.4774 20.3039 27.4804L20.3054 27.4804L30.4355 27.5827C30.7712 27.5873 31.04 27.8992 31.036 28.2793C31.032 28.6578 30.7589 28.9616 30.4247 28.9594Z" fill="white"/>
<path d="M20.0066 16.5907C20.7292 16.5907 21.3149 15.9273 21.3149 15.1089C21.3149 14.2906 20.7292 13.6272 20.0066 13.6272C19.284 13.6272 18.6982 14.2906 18.6982 15.1089C18.6982 15.9273 19.284 16.5907 20.0066 16.5907Z" fill="#3F3D56"/>
<path d="M31.0232 16.9698C31.7458 16.9698 32.3315 16.3064 32.3315 15.4881C32.3315 14.6697 31.7458 14.0063 31.0232 14.0063C30.3006 14.0063 29.7148 14.6697 29.7148 15.4881C29.7148 16.3064 30.3006 16.9698 31.0232 16.9698Z" fill="#3F3D56"/>
<path d="M46.2678 26.1743C46.5748 26.1743 46.8236 25.8862 46.8236 25.5308C46.8236 25.1753 46.5748 24.8872 46.2678 24.8872C45.9608 24.8872 45.7119 25.1753 45.7119 25.5308C45.7119 25.8862 45.9608 26.1743 46.2678 26.1743Z" fill="#F2F2F2"/>
<path d="M48.1877 26.1743C48.4947 26.1743 48.7436 25.8862 48.7436 25.5308C48.7436 25.1753 48.4947 24.8872 48.1877 24.8872C47.8807 24.8872 47.6318 25.1753 47.6318 25.5308C47.6318 25.8862 47.8807 26.1743 48.1877 26.1743Z" fill="#F2F2F2"/>
<path d="M50.1086 26.1743C50.4156 26.1743 50.6645 25.8862 50.6645 25.5308C50.6645 25.1753 50.4156 24.8872 50.1086 24.8872C49.8016 24.8872 49.5527 25.1753 49.5527 25.5308C49.5527 25.8862 49.8016 26.1743 50.1086 26.1743Z" fill="#F2F2F2"/>
<path d="M52.2982 26.0395C52.2812 26.0395 52.2641 26.032 52.2512 26.0171L51.8762 25.5829C51.8512 25.5539 51.8512 25.5077 51.8762 25.4788L52.2512 25.0446C52.2767 25.0152 52.3183 25.0147 52.3442 25.0434C52.3701 25.0722 52.3706 25.1193 52.3452 25.1487L52.0151 25.5308L52.3452 25.913C52.3706 25.9423 52.3701 25.9895 52.3442 26.0182C52.3314 26.0324 52.3148 26.0395 52.2982 26.0395Z" fill="#F2F2F2"/>
<path d="M52.928 26.0394C52.9114 26.0394 52.8949 26.0324 52.8821 26.0182C52.8561 25.9894 52.8557 25.9423 52.8811 25.9129L53.2111 25.5307L52.8811 25.1486C52.8557 25.1192 52.8561 25.0721 52.8821 25.0433C52.908 25.0146 52.9496 25.0151 52.975 25.0445L53.3501 25.4787C53.3751 25.5076 53.3751 25.5539 53.3501 25.5828L52.975 26.017C52.9622 26.0319 52.9451 26.0394 52.928 26.0394Z" fill="#F2F2F2"/>
<path d="M68.2115 24.9617H67.5141C67.4345 24.9617 67.3701 25.0346 67.3701 25.1247V25.9153C67.3701 26.0054 67.4345 26.0783 67.5141 26.0783H68.2115C68.291 26.0783 68.3561 26.0054 68.3561 25.9153V25.1247C68.3561 25.0346 68.291 24.9617 68.2115 24.9617Z" fill="#F2F2F2"/>
<path d="M66.5025 24.9617H65.8051C65.7255 24.9617 65.6611 25.0346 65.6611 25.1247V25.9153C65.6611 26.0054 65.7255 26.0783 65.8051 26.0783H66.5025C66.582 26.0783 66.6471 26.0054 66.6471 25.9153V25.1247C66.6471 25.0346 66.582 24.9617 66.5025 24.9617Z" fill="#F2F2F2"/>
<path d="M69.8218 24.9989H69.1244C69.0449 24.9989 68.9805 25.0719 68.9805 25.1619V25.9525C68.9805 26.0426 69.0449 26.1155 69.1244 26.1155H69.8218C69.9014 26.1155 69.9664 26.0426 69.9664 25.9525V25.1619C69.9664 25.0719 69.9014 24.9989 69.8218 24.9989Z" fill="#F2F2F2"/>
<path d="M60.6246 25.2997H57.9421C57.8448 25.2997 57.7666 25.389 57.7666 25.4984C57.7666 25.6079 57.8448 25.6972 57.9421 25.6972H60.6246C60.7212 25.6972 60.8001 25.6079 60.8001 25.4984C60.8001 25.389 60.7212 25.2997 60.6246 25.2997Z" fill="#F2F2F2"/>
<path d="M51.2333 6.60235C50.9182 5.41926 50.8985 4.23449 51.27 3.04752C51.2716 2.89771 51.3801 2.77773 51.5124 2.77931L53.8829 2.81069C54.0152 2.81261 54.1211 2.93543 54.1197 3.08524L54.083 6.64007C54.0813 6.78988 53.9729 6.90986 53.8406 6.90828L51.4701 6.8769C51.3378 6.87498 51.2319 6.75216 51.2333 6.60235Z" fill="#F2F2F2"/>
<path opacity="0.2" d="M51.7251 6.74317C51.5928 6.74125 51.4869 6.61843 51.4883 6.46862C51.1733 5.28552 51.1535 4.10076 51.525 2.91379C51.5257 2.86655 51.5375 2.82038 51.559 2.77993L51.5124 2.77931C51.3801 2.77773 51.2717 2.89771 51.27 3.04752C50.8985 4.23449 50.9182 5.41925 51.2333 6.60235C51.2319 6.75216 51.3378 6.87498 51.4701 6.8769L53.8406 6.90828C53.9263 6.90909 54.0058 6.85782 54.049 6.77393L51.7251 6.74317Z" fill="black"/>
<path d="M46.2118 6.60235C45.8968 5.41926 45.877 4.23449 46.2485 3.04752C46.2502 2.89771 46.3586 2.77773 46.4909 2.77931L48.8614 2.81069C48.9937 2.81261 49.0996 2.93543 49.0982 3.08524L49.0615 6.64007C49.0598 6.78988 48.9514 6.90986 48.8191 6.90828L46.4486 6.8769C46.3163 6.87498 46.2104 6.75216 46.2118 6.60235Z" fill="#F2F2F2"/>
<path opacity="0.2" d="M46.7036 6.74317C46.5713 6.74125 46.4654 6.61843 46.4668 6.46862C46.1518 5.28552 46.132 4.10076 46.5035 2.91379C46.5042 2.86655 46.516 2.82038 46.5375 2.77993L46.4909 2.77931C46.3586 2.77773 46.2502 2.89771 46.2485 3.04752C45.877 4.23449 45.8968 5.41925 46.2118 6.60235C46.2104 6.75216 46.3163 6.87498 46.4486 6.8769L48.8191 6.90828C48.9048 6.90909 48.9843 6.85782 49.0275 6.77393L46.7036 6.74317Z" fill="black"/>
<path d="M42.1952 6.60235C41.8801 5.41926 41.8604 4.23449 42.2319 3.04752C42.2336 2.89771 42.342 2.77773 42.4743 2.77931L44.8448 2.81069C44.9771 2.81261 45.083 2.93543 45.0816 3.08524L45.0449 6.64007C45.0432 6.78988 44.9348 6.90986 44.8025 6.90828L42.432 6.8769C42.2997 6.87498 42.1938 6.75216 42.1952 6.60235Z" fill="#F2F2F2"/>
<path opacity="0.2" d="M42.687 6.74317C42.5547 6.74125 42.4488 6.61843 42.4502 6.46862C42.1352 5.28552 42.1154 4.10076 42.4869 2.91379C42.4876 2.86655 42.4994 2.82038 42.5209 2.77993L42.4743 2.77931C42.342 2.77773 42.2336 2.89771 42.2319 3.04752C41.8604 4.23449 41.8801 5.41925 42.1952 6.60235C42.1938 6.75216 42.2997 6.87498 42.432 6.8769L44.8025 6.90828C44.8882 6.90909 44.9677 6.85782 45.0109 6.77393L42.687 6.74317Z" fill="black"/>
<path d="M43.8286 4.11575C44.0829 4.11575 44.289 3.88229 44.289 3.59431C44.289 3.30633 44.0829 3.07288 43.8286 3.07288C43.5743 3.07288 43.3682 3.30633 43.3682 3.59431C43.3682 3.88229 43.5743 4.11575 43.8286 4.11575Z" fill="#3F3D56"/>
<path d="M47.6782 4.11575C47.9325 4.11575 48.1386 3.88229 48.1386 3.59431C48.1386 3.30633 47.9325 3.07288 47.6782 3.07288C47.4239 3.07288 47.2178 3.30633 47.2178 3.59431C47.2178 3.88229 47.4239 4.11575 47.6782 4.11575Z" fill="#3F3D56"/>
<path d="M52.5327 4.11575C52.787 4.11575 52.9931 3.88229 52.9931 3.59431C52.9931 3.30633 52.787 3.07288 52.5327 3.07288C52.2784 3.07288 52.0723 3.30633 52.0723 3.59431C52.0723 3.88229 52.2784 4.11575 52.5327 4.11575Z" fill="#3F3D56"/>
<path d="M11.2129 42.7747V49.2201C11.2129 49.6389 11.0631 50.0176 10.8211 50.2919C10.6576 50.4773 10.376 50.3377 10.376 50.0757V41.9167C10.376 41.6571 10.6547 41.5146 10.8175 41.6974L10.8212 41.7017C11.0623 41.9766 11.2129 42.3557 11.2129 42.7747Z" fill="#F5CE4E"/>
<path d="M102.439 42.4568V48.9023C102.439 49.3211 102.589 49.6997 102.831 49.9741C102.995 50.1594 103.276 50.0198 103.276 49.7578V41.5989C103.276 41.3393 102.998 41.1967 102.835 41.3795L102.831 41.3838C102.59 41.6587 102.439 42.0378 102.439 42.4568Z" fill="#F5CE4E"/>
<path d="M84.6963 6.18713H73.1465V21.7321H84.6963V6.18713Z" fill="#3F3D56"/>
<path d="M73.8164 20.9738H84.0271V6.94543H73.8164V20.9738Z" fill="white"/>
<path d="M78.8945 8.08289C78.143 8.08289 77.4383 8.31416 76.834 8.71605C75.9736 9.28857 75.3141 10.208 75.0078 11.3056C74.8856 11.7454 74.8203 12.2118 74.8203 12.6971V19.8364H83.0223V8.08289H78.8945Z" fill="#3F3D56"/>
<path d="M81.0444 19.8311H76.3271C76.5557 19.0982 77.0427 18.5031 77.6649 18.1895C77.9768 18.0308 78.3221 17.942 78.6858 17.942C78.9476 17.942 79.2012 17.9874 79.4381 18.0743C80.187 18.3406 80.7842 18.9961 81.0444 19.8311Z" fill="#F5CE4E"/>
<path d="M75.4899 16.8033C75.2589 16.8033 75.0329 16.8394 74.8203 16.9057V19.8365H77.994C77.999 19.7739 78.0007 19.7114 78.0007 19.6469C78.0007 19.1142 77.8701 18.6138 77.6458 18.1891C77.2056 17.3588 76.4055 16.8033 75.4899 16.8033Z" fill="#F5CE4E"/>
<path d="M83.0224 11.3004V8.84456C82.6054 8.48941 82.0849 8.27783 81.5211 8.27783C80.6521 8.27783 79.8864 8.78033 79.4377 9.54354C79.2009 9.45663 78.9473 9.4113 78.6854 9.4113C78.3218 9.4113 77.9765 9.50008 77.6646 9.65877C77.6596 9.66127 77.6551 9.66456 77.6501 9.66709C77.6486 9.66422 77.6474 9.66118 77.6459 9.65832C77.4433 9.27728 77.1654 8.95311 76.834 8.71614C75.9736 9.28865 75.3141 10.2081 75.0078 11.3057H76.3286C76.7499 12.5951 77.1847 13.4165 77.6305 13.8533C76.7075 14.3418 76.3541 15.6386 76.8372 16.6576C77.7884 18.664 78.5293 19.0805 79.164 18.6946C79.071 18.9911 79.0191 19.3098 79.0191 19.6423C79.0191 19.7065 79.0207 19.7688 79.0257 19.8312H83.0224V17.3753C82.6054 17.0202 82.0849 16.8086 81.5211 16.8086C81.0655 16.8086 80.6389 16.9478 80.271 17.1891L80.2788 17.1732C80.7946 16.1325 81.7556 15.4763 82.8093 15.4763H83.0224V13.0205C82.6053 12.6653 82.0849 12.4537 81.5211 12.4537C80.9902 12.4537 80.4983 12.642 80.0933 12.962L80.1095 12.9384C80.8114 11.9159 81.8788 11.3004 83.0224 11.3004Z" fill="#F5CE4E"/>
<path d="M78.6703 9.03076H78.5029V19.8364H78.6703V9.03076Z" fill="#3F3D56"/>
<path d="M85.3953 102.236L84.1256 102.224L83.5635 96.5481L85.4375 96.566L85.3953 102.236Z" fill="#FFB6B6"/>
<path d="M81.3281 104.523C81.3254 104.877 81.5773 105.168 81.891 105.171L84.4155 105.195L84.8574 104.181L85.0198 105.2L85.9723 105.21L85.7318 101.573L85.4004 101.548L84.0486 101.443L83.6125 101.41L83.6049 102.439L81.5769 103.996C81.4226 104.115 81.3297 104.312 81.3281 104.523Z" fill="#2F2E41"/>
<path d="M99.2839 102.236L98.0142 102.224L97.4521 96.5481L99.3261 96.566L99.2839 102.236Z" fill="#FFB6B6"/>
<path d="M95.2168 104.523C95.2141 104.877 95.466 105.168 95.7796 105.171L98.3042 105.195L98.7461 104.181L98.9084 105.2L99.861 105.21L99.6205 101.573L99.289 101.548L97.9373 101.443L97.5012 101.41L97.4935 102.439L95.4656 103.996C95.3113 104.115 95.2184 104.312 95.2168 104.523Z" fill="#2F2E41"/>
<path d="M78.3471 20.4486C78.8809 21.012 78.8311 22.0211 78.2433 22.5107L79.6913 29.0684L78.1881 29.9679L76.5186 22.165C76.2254 21.6515 76.2672 20.9599 76.6557 20.4971C77.1109 19.9547 77.8682 19.933 78.3471 20.4486Z" fill="#FFB6B6"/>
<path d="M85.7909 57.4652H96.3818C96.3818 57.4652 99.615 62.8336 98.8776 67.8445L97.3413 82.6684L100.598 99.9977L97.4642 100.346L92.0565 82.6684L91.3191 71.9507L89.9671 83.5036L85.7909 99.8235L82.7773 99.8585L84.5594 83.3644L85.2984 67.8224C85.2984 67.8224 85.75 66.7462 85.3698 66.321C84.9896 65.8958 85.4259 65.1408 85.4259 65.1408C85.4259 65.1408 86.0084 64.0967 85.499 63.6043C84.9896 63.112 85.7909 57.4652 85.7909 57.4652Z" fill="#2F2E41"/>
<path d="M100.096 61.8593C100.096 61.8593 90.5099 58.9363 90.8786 62.2769C91.0418 63.7557 85.6946 62.8211 84.044 62.6012L85.6553 54.6909L82.9834 62.4383C82.4967 62.352 82.1943 62.2852 82.1943 62.2852L85.7167 52.5335C85.7167 52.5335 86.0854 43.0685 85.3296 40.7481C84.5737 38.4278 86.4541 37.5008 86.4541 37.5008C88.3115 35.9401 89.1984 34.3984 88.4095 32.8894L92.4764 33.2861L92.8451 35.5521L96.3036 37.4591L94.6183 48.7476C94.6183 48.7476 94.3991 49.0217 94.5438 49.2465C94.6886 49.4713 94.7137 49.6503 94.4554 49.8392C94.197 50.028 94.3174 50.763 94.3174 50.763C94.3174 50.763 94.3297 51.2174 94.5706 51.2491C94.8115 51.2808 94.7295 51.5541 94.7295 51.5541C94.7295 51.5541 94.7136 52.1058 94.9469 51.9717C95.1037 51.8815 98.5825 59.4566 98.8478 59.3356C99.1131 59.2147 99.0216 60.1081 99.2517 60.1486C99.4818 60.189 99.4834 60.6162 99.5827 60.8171C99.8995 61.458 100.096 61.8593 100.096 61.8593Z" fill="#F5CE4E"/>
<path d="M89.2334 41.3395L89.6515 36.922L84.1983 35.4303L78.7219 23.9993L77.0012 24.8344V26.7831C77.0012 26.7831 75.5264 28.4534 80.5006 36.3996L81.9173 38.6144L89.6515 42.7277L89.2334 41.3395Z" fill="#F5CE4E"/>
<path d="M84.5481 15.0576C84.3664 15.8579 84.8884 16.6776 85.6165 16.7315L87.5161 23.1397L89.2103 22.9804L86.905 15.388C86.9078 14.7765 86.5435 14.2193 85.9961 14.0665C85.3546 13.8873 84.7063 14.331 84.5481 15.0576Z" fill="#FFB6B6"/>
<path d="M96.1927 39.0475C97.5821 38.0167 97.753 35.7848 96.5409 34.4986L90.6929 28.293C90.6929 28.293 90.9135 18.572 88.6407 18.5483L88.1494 16.8097L85.5059 18.2384L85.8271 19.6754C85.8271 19.6754 86.0001 25.6218 87.5531 27.3952C87.5812 29.9001 88.5081 30.564 88.5081 30.564L96.1927 39.0475Z" fill="#F5CE4E"/>
<path d="M90.9395 32.7152C92.8639 32.7152 94.4239 30.9484 94.4239 28.769C94.4239 26.5895 92.8639 24.8228 90.9395 24.8228C89.0151 24.8228 87.4551 26.5895 87.4551 28.769C87.4551 30.9484 89.0151 32.7152 90.9395 32.7152Z" fill="#FFB6B6"/>
<path d="M99.4057 39.4473C99.3806 40.0142 99.1413 40.5583 98.6977 40.818C98.5571 40.8976 98.4098 40.9582 98.2575 41.0018C98.2524 40.945 98.2441 40.89 98.2357 40.835C98.0968 39.9023 97.752 39.0133 97.2481 38.2625C97.0088 37.9061 97.6716 39.927 97.839 41.0644C97.6867 40.7194 96.9117 38.5052 96.8614 38.4218C96.8614 38.4256 96.8648 38.4369 96.8715 38.4616C97.1226 39.3203 97.2364 40.2303 97.218 41.1364C96.2471 42.7042 95.4018 43.1269 94.6235 42.9507C94.8578 42.234 94.8327 41.4037 94.5163 40.7251C94.4293 41.3924 94.123 42.0123 93.6844 42.4672C93.3162 42.1772 92.958 41.7923 92.6014 41.3848C93.1622 40.6208 93.5505 39.6976 93.7112 38.7213C93.9405 37.3545 93.7212 35.8967 93.1069 34.6929C93.4032 37.1364 92.578 39.7052 91.0062 41.4037C90.6346 41.3393 90.2998 41.1724 90.1509 40.7971C90.0119 40.4445 90.1057 40.0274 90.2814 39.6976C90.4538 39.3677 89.8496 37.7734 90.0521 37.4663C90.8991 36.1885 91.7042 35.5744 90.797 34.3516C90.3802 33.7886 89.7993 33.3563 89.5499 32.6777C89.2353 31.8227 89.5382 30.8464 89.9031 30.0199C90.2697 29.1915 91.49 29.5782 90.6731 29.5023C89.2687 29.3735 89.8814 28.0825 89.5734 27.5441C89.401 27.2426 88.9758 27.292 88.6577 27.2882C88.5456 26.8616 88.3883 26.4483 88.1907 26.0616C88.241 26.4805 88.2594 26.9052 88.246 27.328C87.9915 27.3772 87.5781 27.8607 87.3589 28.0161L87.2785 28.0597C86.9688 27.8587 87.0148 27.483 87.0131 27.0774C87.0097 26.6717 86.3201 26.2831 86.5109 25.94C87.0181 25.0319 86.855 24.5204 87.7957 24.382C88.7365 24.2436 89.6119 23.8398 90.3065 24.5716C90.9761 23.055 93.5823 24.3934 94.2117 24.6796C94.8411 24.9677 95.3483 25.5782 95.5625 26.3061C96.0613 27.9933 95.8086 28.7706 96.6673 30.2588C97.4021 31.5326 98.4416 30.9317 98.9287 32.3497C99.235 33.2445 98.8701 34.234 98.5454 35.1194C98.2207 36.0066 97.5494 38.0255 98.3864 37.8815C99.0994 37.7563 99.4459 38.5601 99.4057 39.4473Z" fill="#2F2E41"/>
<path d="M102.694 102.214C103.04 102.239 103.231 101.752 102.97 101.468L102.944 101.351C102.947 101.342 102.95 101.332 102.954 101.323C103.304 100.379 104.489 100.385 104.836 101.331C105.143 102.17 105.535 103.011 105.632 103.899C105.675 104.291 105.655 104.69 105.579 105.074C106.3 103.29 106.679 101.342 106.679 99.3833C106.679 98.8911 106.656 98.3988 106.607 97.9079C106.567 97.5062 106.512 97.1071 106.44 96.7116C106.054 94.5737 105.219 92.5375 104.013 90.8368C103.434 90.478 102.95 89.9172 102.659 89.245C102.554 89.0026 102.472 88.7418 102.433 88.4761C102.499 88.4859 102.681 87.3484 102.632 87.2786C102.723 87.1207 102.888 87.0422 102.988 86.888C103.488 86.1215 104.175 86.2553 104.534 87.297C105.301 87.7354 105.309 88.4625 104.838 89.1618C104.539 89.6067 104.498 90.2087 104.235 90.685C104.262 90.7241 104.29 90.7621 104.317 90.8013C104.813 91.5213 105.241 92.2951 105.603 93.1081C105.501 92.2046 105.651 91.1161 105.908 90.4144C106.201 89.6149 106.75 88.9416 107.233 88.2504C107.813 87.4202 109.002 87.7825 109.105 88.8349C109.106 88.8451 109.107 88.8553 109.108 88.8655C109.036 88.9113 108.966 88.96 108.897 89.0114C108.505 89.3047 108.641 89.9923 109.105 90.0734L109.115 90.0752C109.089 90.3678 109.045 90.658 108.98 90.9433C109.6 93.6572 108.262 94.6457 106.352 94.6901C106.31 94.7145 106.269 94.739 106.226 94.7623C106.42 95.3794 106.574 96.0124 106.689 96.654C106.792 97.2209 106.863 97.794 106.903 98.3694C106.953 99.0955 106.949 99.8253 106.894 100.55L106.898 100.524C107.035 99.7261 107.418 98.9804 107.973 98.4637C108.801 97.6936 109.971 97.41 110.864 96.7909C111.294 96.4929 111.845 96.878 111.77 97.4425L111.766 97.4695C111.633 97.5307 111.503 97.6017 111.378 97.6813C111.306 97.7272 111.236 97.7759 111.167 97.8273C110.776 98.1206 110.911 98.8081 111.375 98.8892L111.386 98.8911C111.393 98.8923 111.4 98.8935 111.407 98.8947C111.179 99.5082 110.861 100.078 110.463 100.569C110.076 102.938 108.412 103.162 106.632 102.472H106.631C106.436 103.432 106.152 104.37 105.786 105.264H102.77C102.759 105.226 102.749 105.187 102.74 105.149C103.019 105.169 103.3 105.15 103.574 105.093C103.351 104.782 103.127 104.468 102.903 104.157C102.898 104.151 102.893 104.145 102.889 104.139C102.775 103.98 102.661 103.822 102.547 103.663L102.547 103.662C102.54 103.174 102.592 102.687 102.694 102.214Z" fill="#F2F2F2"/>
<path d="M68.9893 105.274C68.9893 105.4 69.078 105.5 69.1885 105.5H111.586C111.697 105.5 111.785 105.4 111.785 105.274C111.785 105.149 111.697 105.049 111.586 105.049H69.1885C69.078 105.049 68.9893 105.149 68.9893 105.274Z" fill="#CCCCCC"/>
</g>
<defs>
<clipPath id="clip0_331_2284">
<rect width="116" height="105" fill="white" transform="translate(0.5 0.5)"/>
</clipPath>
</defs>
</svg>
