<svg width="73" height="73" viewBox="0 0 73 73" fill="none" xmlns="http://www.w3.org/2000/svg">
<g clip-path="url(#clip0_320_14704)">
<path fill-rule="evenodd" clip-rule="evenodd" d="M2.05039 21.6673C4.48385 9.92622 11.9801 3.38546 23.6696 1.40913C32.3105 -0.051627 40.9547 -0.0688125 49.5818 1.45038C61.6185 3.57106 68.8535 10.4933 71.1598 22.4131C72.9402 31.6245 72.9677 40.9356 71.1323 50.1401C68.6679 61.8021 60.9826 68.9994 49.3343 70.9688C40.6935 72.4296 32.0492 72.4467 23.4222 70.9276C11.3855 68.8069 4.11952 61.5409 1.81323 49.6211C-0.0599763 40.3478 0.122189 30.9784 2.05039 21.6707V21.6673Z" fill="white"/>
<path d="M52.2872 19.856H47.8328C46.9824 19.856 46.293 20.5454 46.293 21.3958V25.1628C46.293 26.0132 46.9824 26.7026 47.8328 26.7026H52.2872C53.1377 26.7026 53.8271 26.0132 53.8271 25.1628V21.3958C53.8271 20.5454 53.1377 19.856 52.2872 19.856Z" fill="#2EE5C2"/>
<path d="M26.959 29.3216C28.2892 28.6136 29.8084 28.2596 31.5235 28.2596C33.5617 28.2596 35.4074 28.7751 37.0606 29.8097C38.7138 30.8443 40.0199 32.3222 40.9823 34.2401C41.9413 36.1614 42.4225 38.3886 42.4225 40.9286C42.4225 43.4687 41.9413 45.7062 40.9823 47.6413C40.0234 49.5763 38.7138 51.068 37.0606 52.1164C35.4074 53.1647 33.5617 53.6905 31.5235 53.6905C29.7809 53.6905 28.2582 53.3434 26.959 52.6491C25.6598 51.9548 24.639 51.0337 23.9035 49.8788V53.3331H16.3281V20.5468H23.9035V32.1091C24.6115 30.9577 25.6323 30.0262 26.959 29.3182V29.3216ZM33.1389 36.4742C32.0906 35.3949 30.7982 34.8588 29.2619 34.8588C27.7255 34.8588 26.4778 35.4053 25.4295 36.4983C24.3812 37.5912 23.8553 39.0829 23.8553 40.9733C23.8553 42.8637 24.3812 44.3554 25.4295 45.4484C26.4778 46.5414 27.7564 47.0879 29.2619 47.0879C30.7673 47.0879 32.0528 46.5345 33.1148 45.4278C34.1769 44.321 34.7096 42.8225 34.7096 40.9321C34.7096 39.0417 34.1838 37.5569 33.1355 36.4811L33.1389 36.4742Z" fill="#4416A8"/>
<path d="M53.9845 28.6101V53.3296H46.4092V28.6101H53.9845Z" fill="#4416A8"/>
<path d="M59.5979 50.3257C59.3745 49.9545 58.9689 49.7071 58.5015 49.7071C57.7969 49.7071 57.2229 50.2776 57.2229 50.9857C57.2229 51.6937 57.7934 52.2642 58.5015 52.2642C58.9655 52.2642 59.3745 52.0168 59.5979 51.6456L59.1614 51.3844C59.0274 51.6078 58.7833 51.7556 58.5049 51.7556C58.0822 51.7556 57.7385 51.4119 57.7385 50.9891C57.7385 50.5663 58.0822 50.2226 58.5049 50.2226C58.7833 50.2226 59.0274 50.3704 59.1614 50.5938L59.5979 50.3326V50.3257ZM61.0587 50.9822C61.0587 49.573 59.9141 48.4285 58.5049 48.4285C57.0957 48.4285 55.9512 49.573 55.9512 50.9822C55.9512 52.3914 57.0957 53.536 58.5049 53.536C59.9141 53.536 61.0587 52.3914 61.0587 50.9822ZM56.4599 50.9822C56.4599 49.8514 57.3741 48.9372 58.5049 48.9372C59.6357 48.9372 60.55 49.8514 60.55 50.9822C60.55 52.113 59.6357 53.0273 58.5049 53.0273C57.3741 53.0273 56.4599 52.113 56.4599 50.9822Z" fill="#4416A8"/>
</g>
<defs>
<clipPath id="clip0_320_14704">
<rect width="72" height="71.7491" fill="white" transform="translate(0.5 0.312744)"/>
</clipPath>
</defs>
</svg>
