<svg width="132" height="22" viewBox="0 0 132 22" fill="none" xmlns="http://www.w3.org/2000/svg">
<g clip-path="url(#clip0_320_17095)">
<path d="M23.3219 0H20.4264C19.877 0 19.4316 0.446628 19.4316 0.997571V3.45587C19.4316 4.00681 19.877 4.45344 20.4264 4.45344H23.3219C23.8713 4.45344 24.3167 4.00681 24.3167 3.45587V0.997571C24.3167 0.446628 23.8713 0 23.3219 0Z" fill="#2EE5C2"/>
<path d="M105.035 0H102.139C101.59 0 101.145 0.446628 101.145 0.997571V3.45587C101.145 4.00681 101.59 4.45344 102.139 4.45344H105.035C105.584 4.45344 106.03 4.00681 106.03 3.45587V0.997571C106.03 0.446628 105.584 0 105.035 0Z" fill="#4416A8"/>
<path d="M6.89455 6.15463C7.75609 5.6937 8.74197 5.46212 9.85443 5.46212C11.1756 5.46212 12.3724 5.79835 13.4449 6.47082C14.5174 7.14329 15.3656 8.10301 15.9874 9.3522C16.6091 10.6014 16.9222 12.051 16.9222 13.7032C16.9222 15.3554 16.6113 16.8095 15.9874 18.0676C15.3656 19.3257 14.5174 20.2965 13.4449 20.9779C12.3724 21.6593 11.1756 22 9.85443 22C8.72421 22 7.73832 21.7751 6.89455 21.323C6.05077 20.871 5.39129 20.272 4.91167 19.5216V21.7684H0V0.449768H4.91167V7.9694C5.37131 7.22123 6.033 6.61556 6.89455 6.15463ZM10.9025 10.8062C10.223 10.1048 9.38369 9.75523 8.38892 9.75523C7.39415 9.75523 6.58368 10.1115 5.90422 10.8218C5.22476 11.5322 4.88502 12.503 4.88502 13.7322C4.88502 14.9613 5.22476 15.9322 5.90422 16.6425C6.58368 17.3528 7.41191 17.7091 8.38892 17.7091C9.36592 17.7091 10.1986 17.3484 10.8892 16.6291C11.5797 15.9077 11.9239 14.9346 11.9239 13.7054C11.9239 12.4763 11.5842 11.5121 10.9047 10.8107L10.9025 10.8062Z" fill="#4416A8"/>
<path d="M24.4185 5.69373V21.7706H19.5068V5.69373H24.4185Z" fill="#4416A8"/>
<path d="M32.8941 0.449768V21.7684H27.9824V0.449768H32.8941Z" fill="#4416A8"/>
<path d="M41.3697 0.449768V21.7684H36.458V0.449768H41.3697Z" fill="#4416A8"/>
<path d="M44.976 9.35218C45.6554 8.10299 46.6036 7.14327 47.8204 6.4708C49.0372 5.79833 50.4294 5.4621 51.9993 5.4621C54.011 5.4621 55.6919 5.98983 57.042 7.04752C58.392 8.10521 59.278 9.59266 59.6999 11.5121H54.4707C54.031 10.2829 53.1784 9.66837 51.9127 9.66837C51.0134 9.66837 50.294 10.0202 49.7588 10.7194C49.2215 11.4208 48.955 12.4251 48.955 13.7299C48.955 15.0348 49.2237 16.039 49.7588 16.7404C50.294 17.4419 51.0134 17.7914 51.9127 17.7914C53.1761 17.7914 54.0288 17.1769 54.4707 15.9477H59.6999C59.278 17.8315 58.3876 19.3101 57.0286 20.3856C55.6697 21.4611 53.9933 22 52.0015 22C50.4316 22 49.0372 21.6637 47.8226 20.9912C46.6058 20.3188 45.6576 19.3591 44.9782 18.1099C44.2987 16.8607 43.959 15.4022 43.959 13.7299C43.959 12.0576 44.2987 10.5991 44.9782 9.34995L44.976 9.35218Z" fill="#4416A8"/>
<path d="M76.5928 7.35037C77.703 8.57062 78.2581 10.2451 78.2581 12.3783V21.7706H73.3753V13.0419C73.3753 11.9664 73.0977 11.1313 72.5426 10.5346C71.9875 9.94005 71.2392 9.64167 70.3022 9.64167C69.3651 9.64167 68.6168 9.94005 68.0617 10.5346C67.5066 11.1291 67.2291 11.9664 67.2291 13.0419V21.7706H62.3174V0.449768H67.2291V7.85361C67.7264 7.14329 68.4059 6.57548 69.2697 6.15463C70.1312 5.73155 71.0993 5.52001 72.1718 5.52001C74.0104 5.52001 75.4847 6.13013 76.5972 7.35037H76.5928Z" fill="#4416A8"/>
<path d="M81.6331 9.35218C82.2548 8.10299 83.103 7.14327 84.1755 6.4708C85.248 5.79833 86.4448 5.4621 87.766 5.4621C88.8962 5.4621 89.8865 5.69368 90.7392 6.15461C91.5918 6.61554 92.2469 7.22121 92.7065 7.96938V5.69368H97.6182V21.7706H92.7065V19.4949C92.2269 20.2431 91.5608 20.8487 90.7103 21.3097C89.8577 21.7706 88.8673 22.0022 87.7371 22.0022C86.4337 22.0022 85.248 21.6615 84.1755 20.9801C83.103 20.2987 82.2548 19.3279 81.6331 18.0698C81.0113 16.8117 80.6982 15.3576 80.6982 13.7054C80.6982 12.0532 81.0091 10.6036 81.6331 9.3544V9.35218ZM91.6895 10.8218C91.0101 10.1115 90.1818 9.75521 89.2048 9.75521C88.2278 9.75521 87.3996 10.107 86.7201 10.8062C86.0407 11.5076 85.701 12.4718 85.701 13.701C85.701 14.9301 86.0407 15.9054 86.7201 16.6246C87.3996 17.3439 88.2278 17.7046 89.2048 17.7046C90.1818 17.7046 91.0101 17.3506 91.6895 16.638C92.369 15.9277 92.7087 14.9568 92.7087 13.7277C92.7087 12.4985 92.369 11.5277 91.6895 10.8174V10.8218Z" fill="#4416A8"/>
<path d="M106.096 5.69373V21.7706H101.185V5.69373H106.096Z" fill="#4416A8"/>
<path d="M123.922 7.35038C125.041 8.57063 125.603 10.2451 125.603 12.3783V21.7706H120.72V13.0419C120.72 11.9664 120.442 11.1314 119.887 10.5346C119.332 9.94006 118.584 9.64168 117.647 9.64168C116.71 9.64168 115.962 9.94006 115.406 10.5346C114.851 11.1291 114.574 11.9664 114.574 13.0419V21.7706H109.662V5.6937H114.574V7.82468C115.071 7.11435 115.742 6.55322 116.586 6.13905C117.427 5.7271 118.375 5.52002 119.43 5.52002C121.306 5.52002 122.805 6.13014 123.926 7.35038H123.922Z" fill="#4416A8"/>
<path d="M130.732 18.8848C130.538 18.5619 130.183 18.3437 129.779 18.3437C129.166 18.3437 128.669 18.8425 128.669 19.4571C128.669 20.0716 129.166 20.5704 129.779 20.5704C130.183 20.5704 130.536 20.3544 130.732 20.0293L130.352 19.8C130.236 19.9937 130.023 20.1251 129.781 20.1251C129.413 20.1251 129.115 19.8267 129.115 19.4571C129.115 19.0874 129.413 18.7891 129.781 18.7891C130.023 18.7891 130.236 18.9182 130.352 19.1142L130.732 18.8848ZM132 19.4571C132 18.2279 131.005 17.2303 129.779 17.2303C128.553 17.2303 127.559 18.2279 127.559 19.4571C127.559 20.6862 128.553 21.6838 129.779 21.6838C131.005 21.6838 132 20.6862 132 19.4571ZM128.003 19.4571C128.003 18.4729 128.798 17.6757 129.779 17.6757C130.761 17.6757 131.555 18.4729 131.555 19.4571C131.555 20.4413 130.761 21.2384 129.779 21.2384C128.798 21.2384 128.003 20.4413 128.003 19.4571Z" fill="#4416A8"/>
</g>
<defs>
<clipPath id="clip0_320_17095">
<rect width="132" height="22" fill="white"/>
</clipPath>
</defs>
</svg>
